<svg version="1.0" xmlns="http://www.w3.org/2000/svg" width="1264" height="1400" viewBox="0 0 948 1050"><path d="M91.5 24.9c2 2.7 3.5 6 3.5 7.6 0 2.6-.1 2.7-4.2 2.1-2.4-.4-7-.9-10.3-1.1-6-.5-6-.5-2.5.9 1.9.8 4.3 1.5 5.3 1.5 3.3.2 7.7 4.3 7.7 7.3 0 1.5-.6 2.8-1.2 2.9-.7 0 0 .7 1.7 1.4l3 1.3 2.2 17.3C98 75.7 99.4 87.8 100 93c.5 5.2 1.7 12 2.5 15 .9 3 2.9 10.5 4.5 16.5 1.6 6.1 4.4 14.9 6.3 19.5 1.8 4.7 4.6 11.9 6.2 16 1.6 4.1 3.2 7.9 3.6 8.5.4.5 2.9 5.3 5.7 10.5 7.3 14 14.2 34.9 14.2 43.3 0 4 .6 5.6 3.1 8.8 1.7 2.1 3.9 3.9 4.9 3.9 3.1 0 3.3 1.7 1.1 8.8-1.1 3.7-2.8 10.6-3.7 15.5-1.6 8.3-1.6 9.1.1 15.5.9 3.7 2.6 7.9 3.6 9.4s1.9 3.7 1.9 4.8c0 1.2-2.7 7.7-5.9 14.5l-6 12.3-19.8-.5c-14.9-.4-23-.2-32.8 1.1-7.1.9-20 2.3-28.5 3.1-8.5.8-18.2 1.9-21.5 2.5-3.3.5-9.3 1.4-13.3 2.1-6.9 1-7.2 1.2-5.2 2.6 1.9 1.3 3.4 1.3 13.3-.2 6.2-.9 12.8-2 14.7-2.5 1.9-.5 7.8-1.2 13-1.5 5.2-.4 14.9-1.3 21.6-2.1 11.9-1.4 32.2-1.9 43.9-1 3.3.2 7.3.4 8.9.5 2.7.1 2.8.3 2.2 3.8-.4 2.1-1.1 8.5-1.7 14.3-.7 7.5-1.4 10.8-2.6 11.7-.8.7-5.4 2.4-10.2 3.8-4.7 1.4-9.5 3-10.6 3.5-1.1.5-3.8 1.4-6 2-2.2.7-5.3 1.8-7 2.6-1.6.7-8.6 3.4-15.5 5.9-19.8 7.3-25.1 10.1-22.2 11.9.8.5 16.4-4.5 21.9-7 1.7-.8 3.7-1.4 4.5-1.4.8 0 4.1-1 7.4-2.3 3.2-1.3 7.4-2.7 9.3-3 1.9-.4 5.8-1.8 8.7-3.2 2.9-1.4 5.8-2.5 6.4-2.5.6 0 3.3-.7 6-1.6 6.6-2.2 9.2-1.6 10.2 2.1 1.3 5.7 5 15 6.5 16.7.8.9 1.3 2.7 1.1 4-.3 2.4-.4 2.4-17.3 10.6-4.4 2.2-11.6 5.9-16 8.3-4.4 2.3-9.7 5.1-11.7 6.2-2 1-4.2 2.5-4.9 3.3-.6.8-1.6 1.4-2.1 1.4-2.1 0-29.4 20.8-28.4 21.7.6.7 8.4-3.4 13.9-7.3 2.6-1.9 5.3-3.4 6.1-3.4.8 0 2.7-1.1 4.3-2.4 1.5-1.3 4.6-3.3 6.8-4.5 11.3-6.3 13.2-7.3 15.7-9.1 1.5-1.1 4.9-2.9 7.5-3.9 2.6-1.1 9.5-4.4 15.3-7.5 5.8-3.1 11.6-5.6 13-5.6 1.7 0 3.9 1.4 6.5 4.1 6 6.2 17.1 14.8 23.4 18.2 3 1.6 7.4 4.5 9.6 6.3 12.3 10.3 15 12.4 15.9 12.4 1.2 0 1.4.2-7.9-7.5-3.8-3.2-7.6-6.6-8.2-7.6-.7-.9-4.6-3.3-8.5-5.3-12.9-6.4-23.2-16.7-22.6-22.5.3-2.6.9-3 8.6-6.2 5.9-2.5 7.4-5.6 2-4.5-1.7.3-4.5 1.3-6.1 2.1-4.3 2.1-10.6 2-11.3-.3-.4-.9-1.9-4.6-3.5-8.1-3.1-6.7-3.9-14.4-1.6-15.8.6-.4 7-.9 14.1-1 12.9-.2 14.3-.4 13.2-2.1-.5-.8-14.8-2.8-24.6-3.5l-3.5-.2.2-5c.2-5.9 2.7-16.1 4.5-18.2.9-1.1 2.3-1.3 5.5-.8 5.3.8 14.1-.4 12.2-1.6-.8-.5-4.5-.9-8.2-.9-8.1 0-8.7-.8-6.3-8.6 1.6-5 11.1-24.7 13.3-27.7.5-.6 1.5-2.8 2.3-4.7.7-1.9 3.2-7.6 5.5-12.5 4.5-9.4 6.1-14.5 4.7-14.5-1.2 0-8.8 11.9-13.2 20.5-2.7 5.3-4.1 7.1-5.9 7.3-1.3.2-2.8-.2-3.2-1-1.5-2.3-1-18 .6-21.2.8-1.5 1.5-4.1 1.5-5.7 0-1.5.4-3 .9-3.3.4-.3 1.4-2.7 2.1-5.3 1.3-5.1 2.7-9.6 4-12.8.5-1.1 1.4-3.7 2-5.8.6-2 1.6-3.7 2.1-3.7s.9-1.2.9-2.8c0-1.5.6-3.6 1.4-4.7.7-1.1 1.1-3.4.9-5.1l-.5-3.2-3.1 3.7c-3.7 4.2-5.9 8.4-8.6 16.1-1.6 4.6-2.4 5.6-4.5 5.8-1.8.2-2.8-.2-3.2-1.5-.3-1-1.4-3.4-2.5-5.4-2-3.9-2.4-8-1-10.7 1.5-3.1-.6-17.8-3.5-23.5-2.7-5.4-2.9-5.8-7.9-14.2-3.6-6-9-18.3-11-24.7-.7-2.6-2-6.2-2.8-8-1.8-4.1-4.5-12-5.8-17.3-.6-2.2-2.1-7.4-3.5-11.5-1.3-4.1-2.9-11.3-3.5-16-.5-4.7-1.4-10.8-1.9-13.5-2.2-11.3-4.3-31.2-3.7-33.7 1-3.8 4.2-4.4 15.1-3 9.6 1.2 21.9 4.9 30.1 9.1 10.8 5.4 30 22.5 36.9 32.7 1.2 1.7 4.6 6.5 7.7 10.6 3.1 4 8.2 12 11.5 17.7 5.8 10.2 8.2 12.8 11 11.7 1.5-.6 1.9-4.7.5-6.2-.5-.5-2-2.9-3.3-5.4-1.4-2.5-4.3-7.4-6.4-10.9-2.2-3.5-5.3-8.7-6.9-11.7-1.7-2.9-4.2-6.6-5.5-8.1-1.4-1.5-3.6-4.4-5-6.3-4.8-6.9-25.7-25.2-33.4-29.1-2.3-1.3-4.8-1.8-6.2-1.5-1.7.5-2.4.2-2.4-.8 0-2.1-5.7-3.6-18-5l-10.5-1.1v-6l15-.2c8.7-.1 19.5.4 25.8 1.3 5.9.7 13.6 1.4 17 1.4 3.4 0 9.4.7 13.2 1.6 16.2 3.6 19.5 4.4 29.5 7.2 11.4 3.2 23 6.8 27 8.4 1.4.6 5.6 2.1 9.3 3.4 3.7 1.3 12.2 5.3 18.7 8.9 6.5 3.6 12.2 6.5 12.6 6.5.3 0 1.9 1.1 3.6 2.5 3.7 3.1 8.3 3.4 9.1.5.3-1.1 1.3-2.2 2.4-2.6 1-.3 3.2-1.1 4.8-1.8 13-5.6 43.1-9.4 63.9-8.1 10.2.6 26.2 3.6 32.6 6 1.9.7 6 1.8 9 2.5 6.9 1.5 15.8 4.9 18.9 7.2 1.3 1 2.9 1.8 3.6 1.8.7 0 3.8 1.4 6.9 3 4.7 2.6 5.7 2.8 6.2 1.5 1-2.6-2.3-6.2-7.3-8.1-2.6-1-8.8-3.9-13.8-6.5-9.2-4.8-20.2-8.2-43.3-13.3-8.1-1.9-34.1-2.2-45.2-.7-17.6 2.5-22.4 3.3-26.3 4.6-7.5 2.4-11.1 4-14.8 6.2-4.5 2.8-7.1 2.9-9.5.2-1-1.1-5.2-3.7-9.4-5.8-4.1-2-9.3-4.8-11.5-6.2-6-3.7-26.1-11.5-38.5-14.9-3.6-1-11.7-3.2-18-5-16.5-4.7-22.7-5.8-38.5-7.1-36.9-2.9-46-2.6-57.8 2-6.1 2.4-8.8 1.4-14.7-5.2-3-3.4-6.7-7-8.2-7.9-2.7-1.7-2.7-1.7.7 3.1z"/><path d="M750 33.7c-2.2.8-18.7 8.1-24 10.6-2.5 1.2-6 3.1-7.9 4.4-2.9 2-4.6 2.3-12.7 2.3-5.5 0-11.7-.7-15.1-1.6-8.4-2.4-19.4-4.3-30.3-5.4-5.2-.5-14-1.5-19.5-2.1-7.6-.9-13.5-.9-24.7 0-14.9 1.2-40.6 5.3-45.6 7.2-1.5.6-5.8 1.9-9.7 2.9-17.1 4.5-36.5 10.5-42.1 13.1-2.2 1-4.6 1.9-5.3 1.9-2 0-15.6 5.7-27.6 11.6-6.1 3-11.4 5.4-11.9 5.4-.4 0-2 .8-3.4 1.9-1.5 1-6.7 4-11.7 6.6-4.9 2.6-9.4 5-10 5.5-.5.4-3.8 2.2-7.3 4-5.1 2.6-6.2 3.7-6 5.4.6 3.9 4.7 3.1 16-3 1.4-.8 3.2-1.4 3.9-1.4.6 0 3.5-1.5 6.3-3.4 7.5-4.9 15.8-9.3 19.3-10 1.7-.4 4.5-1.8 6.4-3.2 1.8-1.3 3.8-2.4 4.5-2.4.7 0 2.5-.7 4.1-1.5 8.6-4.4 28.8-11.8 37.3-13.7 2.5-.5 5.9-1.5 7.5-2.3 2.8-1.3 10.8-3.7 21.5-6.4 2.5-.7 6.1-1.7 8-2.2 1.9-.6 5.8-1.5 8.5-2.1 2.8-.5 7.8-1.6 11.2-2.4 3.4-.8 7.9-1.4 10-1.4 2.1-.1 6.6-.7 10-1.4 7.1-1.5 45.3-1.2 48.4.4 1 .6 3.8 1 6.3 1 4.5 0 22.4 2.7 23.9 3.7.4.2.7 1.7.7 3.3 0 2.4-.5 3.1-2.7 3.6-1.5.4-4.8 2-7.3 3.5s-6.5 3.8-9 5c-2.5 1.3-5.4 3.1-6.5 4-1.1.9-6.8 4.2-12.7 7.2-5.9 3.1-11.7 6.3-13 7.1-1.3.9-5 2.5-8.2 3.6-3.2 1.1-7.4 3-9.4 4.2-2 1.3-4.4 2.7-5.3 3.3-1.6 1-3.8 2.6-17.2 12.2-13.4 9.8-19.9 14.8-24.3 18.8-2.4 2.2-7.4 6.7-11.1 10-12 10.5-22.7 26.5-25.7 38.1-2 7.8-2 12.4 0 15.2 2.1 3 3.4 1.9 3.4-3 0-13.2 8.4-28.9 22.9-42.8 7.3-6.9 23.2-19.8 26.8-21.7 1.5-.7 4.9-3.3 7.7-5.7 14.7-12.4 26.7-19.5 39.7-23.6 1.5-.4 5.2-2.4 8.2-4.3 3-1.9 8.8-5.2 12.8-7.3 4.1-2 8.3-4.5 9.4-5.4 2.6-2.1 12.2-7.7 21.2-12.3 4.9-2.6 9.1-3.9 13.3-4.4l6.2-.6-.5 5.4c-.7 7.9-2.8 20.7-4.2 26.4-.7 2.7-2.1 8.6-3.2 13s-3.2 10.9-4.6 14.5c-1.4 3.6-3.7 9.6-5.2 13.5-1.4 3.8-4.8 11.6-7.6 17.1-2.7 5.6-4.9 10.4-4.9 10.7 0 .3-2.4 4.5-5.4 9.4-2.9 4.8-6.3 10.8-7.6 13.3-2.5 5-13.6 21.3-18.7 27.5-8.4 10.2-14.2 17.4-18 22.5-6.5 8.6-19 20.9-27.8 27.5-4.4 3.3-9.8 7.7-12 9.8-6 5.8-15.1 11.7-18 11.7-2.3 0-3-.9-5.6-6.6-1.7-3.7-3.4-9-3.9-11.8-.5-2.8-1.6-8.5-2.4-12.6-.8-4.1-1.8-11.1-2.2-15.5-.7-8.1-3.4-15.9-4.2-12.2-.2 1 .1 8.5.7 16.6 1.2 17.1 4.6 30.5 9.8 39.1 3.5 5.8 4.1 9.1 2.1 10.7-.7.5-4.7 1.9-8.8 3.1-4.1 1.2-7.8 2.6-8.2 3-.4.4 4.2.6 10.2.4 12.8-.3 12.7-.4 13.2 10.3l.3 7-12 .6c-7.6.3-12.9 1.1-14.5 2-2.3 1.3-1.4 1.4 10 1.6 16.9.4 17 .4 17 5.4 0 4.4-2.7 17.3-4.2 20.3-.9 1.7-1.9 1.8-12.3 1.2-8.3-.5-11.5-.4-12.1.5-1.3 2.2 2.5 3.7 11.1 4.4 7.8.6 8.5.9 8.5 2.8 0 4-3.3 13.2-9 25.2-1.6 3.3-4 8.6-5.4 11.7-2.3 5.4-2.7 5.8-5.8 5.8-1.9 0-6.2 1.5-9.8 3.5-3.6 1.9-8.7 4.5-11.5 5.8-19.4 9.4-28.6 13.7-29.3 13.7-.5 0-6.3 2-12.8 4.5-6.5 2.5-14.6 5.5-17.8 6.6-3.2 1.1-8.4 3.3-11.5 4.8-3.1 1.6-7.8 3.6-10.6 4.4-2.7.9-12.2 4.1-21 7.2-27.7 9.7-22.9 9.1-55.8 6.9-10.4-.7-16.3.1-27.3 3.7-5.3 1.7-9.1 2-29.5 2.1-22.9.2-32.2-.6-38.5-3.2-4.7-2-8.8 0-10.9 5.3-2.2 5.5-3 13-1.8 16.4.6 1.5 1.6 4.8 2.4 7.3.7 2.5 1.6 4.9 2.1 5.4 1.5 1.8.8 7.2-1.6 12.2-1.3 2.7-2.7 6.5-3 8.4-.4 1.9-1.3 5.5-2.1 8-3 10.4-5.6 19.2-9 31.5-2 7.1-4.1 14.1-4.6 15.4-.6 1.3-1.8 6.7-2.9 12-1.9 9.6-4.7 18.9-7.1 23.3-.7 1.2-3.6 7.9-6.5 14.8-2.8 6.9-6.8 16.3-8.9 21-2 4.7-4 9.7-4.5 11.2-.5 1.6-2.2 5.4-3.9 8.5-1.7 3.2-5.3 11.4-8.2 18.3-2.8 6.9-9.5 21.5-14.9 32.5s-10.6 21.8-11.5 24c-1 2.2-3.3 7.1-5.2 11-1.9 3.8-4.3 9.6-5.4 12.7-1.7 5.1-6.6 15-19.1 38.3-2.9 5.4-15 29.6-22 43.7-.4 1-.8 2.2-.8 2.7 0 1.4-6.8 13-10.3 17.4-3 3.9-12.9 32.2-14.7 42.2-.5 2.7-1.4 7.2-1.9 10-1.6 8.3-1.3 13.9.9 16.8 1.2 1.5 2 4 2 6.2 0 2.9.3 3.5 1.3 2.7 1.6-1.3 20.6-8 27.7-9.7 3-.7 9-2.5 13.3-3.9 7.5-2.6 8.2-2.7 26.5-2.3 28.2.6 41.9 3.5 45.6 9.8.9 1.5 3.1 3.8 4.9 5.1 9.1 6.4 18.8 15.3 21.3 19.6 3.3 5.6 8.8 11.2 12.9 13.1 1.7.7 4.6 2.1 6.5 3.1 2.9 1.5 4.7 1.6 10.9.9 4.1-.4 8.7-1.3 10.1-1.9 3-1.2 6-6.6 6-10.7 0-1.7 2-5 5.6-9.5 3.1-3.8 5.5-7 5.3-7.3-.3-.2-2.8 1.4-5.6 3.6-3.4 2.6-6.2 3.9-8.2 3.9-2.8 0-3.1-.3-3.1-3.3 0-4.8-1.9-10.7-3.4-10.7-2.8 0-3.6 2.6-3 9.6.7 8.2-.8 14.9-3.7 16.5-2.8 1.4-15.6-.6-18.9-3-1.4-1-4.4-4.5-6.8-7.9-2.3-3.3-6.9-8-10-10.4-11.4-8.6-20-16.1-21-18.4-1.8-3.8-8.7-6.6-24.2-9.6-3-.6-11.8-1.1-19.6-1.2-11.2-.1-14.5.2-15.9 1.4-1.9 1.6-10.3 3.4-22.7 4.9-4.2.5-8.5 1.4-9.6 2-2.6 1.4-9.9 3.7-13.7 4.4-5 .9-6-.3-4.6-5.6.6-2.5 1.1-6.3 1.1-8.3 0-2.1.4-5.1.9-6.8.5-1.7 2.5-8.3 4.5-14.6 1.9-6.3 3.8-12.6 4.1-14 .9-3 5.5-11.4 10.8-19.3 2.1-3.2 4.3-7.3 4.9-9 1-3.1 11.2-25.1 14.5-31.2 7.8-14.7 14.8-27.4 16.2-29.5 2.5-3.6 10.1-19.7 10.1-21.3 0-.7.6-2.1 1.3-3.2 1.8-2.7 5.7-12.4 5.7-14.2 0-.8 1.1-2.9 2.5-4.7 1.4-1.8 2.5-3.6 2.5-4 0-.8 5.5-12.5 15.7-33.6 7.8-16.1 10.8-22.6 13.4-29.5 1.2-3.3 3.9-9.6 6-13.9 2.2-4.4 3.9-8.7 3.9-9.6 0-.9.4-2 .9-2.6.5-.5 1.8-3.6 3.1-6.9 2.7-7.6 5-12.6 6.5-14.5.7-.8 1.5-3.1 1.9-5 .3-1.9 1.8-6 3.2-9 1.4-3 3.6-7.8 4.8-10.5 1.3-2.8 2.7-6.5 3-8.2.4-1.8 1.2-3.5 1.7-3.8.5-.4.9-2.3.9-4.3 0-4.3 2.1-13.9 6.1-27.2 5.5-18.8 6.9-23.8 6.9-25.4 0-.9.4-2.4.9-3.4 1.4-2.5 2.8-9.3 4.2-20.5.7-5.5 1.7-9.7 2.3-9.7.6 0 2.7 1 4.6 2.2 2.1 1.3 6.1 2.5 9.8 2.9 3.5.3 6.8 1.1 7.3 1.6 1 1 .1 8.2-2.3 19.9-1.8 8.5-.6 25.9 2.3 32.7 2.9 7 13.8 18.4 22 23 18.4 10.2 16.8 9.7 32.3 9.8 20.4.1 29.1-1.5 44.1-8.1 2.8-1.2 7.3-3 10.2-4 4.6-1.6 8.7-4.2 17.4-10.9 4-3.1 9.7-12.1 11.1-17.6.6-2.8 1.8-5.7 2.6-6.7 3.4-4.1 5.5-25.2 3.3-33.8-.5-1.9-1.1-5.1-1.4-7.1-.5-3.6-.5-3.7 3.2-4.2 3.3-.4 8.5-2.4 18.6-7.2 1.7-.8 4.4-1.9 6-2.5 3.3-1.2 27.3-11.6 37-16 3.3-1.5 7.2-3 8.7-3.3 3.9-1 24.2-12.8 43.5-25.4 4.5-2.9 8.7-5.3 9.3-5.3.6 0 1.4.8 1.8 1.7.4 1 1.9 3.6 3.4 5.8 1.5 2.2 3.9 7.6 5.3 12 3.1 9.3 6.9 18.8 9 22.7 3.1 5.6 8.8 23.6 9.6 30.3 2.5 22.3 4.2 30 7.6 33.7 1.8 2 2.2 2.1 4.2.9 1.1-.7 1.1-1.5.1-4.5-1-3.1-.9-4.4.4-7.7 1.3-3.2 1.4-5.2.7-10.7-3.8-26.5-3.8-29.1 0-48.2 3.1-15.9 6.7-31 7.6-32.2.6-.7 2-3.8 3.1-6.8 5.1-13.8 5.9-16 6.9-17.2.5-.7 1.8-3.6 2.8-6.3 5.2-14 20.4-40.1 24.9-42.7.7-.4 3.7.4 6.7 1.8 12.6 5.9 18.9 7.5 18.9 4.6 0-.4-1.7-1.6-3.7-2.6-6.9-3.2-16.3-9.1-16.3-10.2 0-4.1 39.2-46.3 55.3-59.4 18.2-14.8 44.1-30.8 60.9-37.7 12.6-5.1 43.3-9.5 45.2-6.4.3.5-.5 3.3-1.8 6.2-3.2 7.2-4.1 14.4-2.5 21.6 1.4 6.5 4.4 11.5 11.3 18.6 2.5 2.6 4.6 5.4 4.6 6.2 0 .9 1.4 2.8 3 4.3 2.6 2.3 3.3 4 4.6 11.2 1.8 10.1 1.3 13.9-2.7 23.4-3.2 7.5-13.2 24.3-15.7 26.3-1.2 1-2.2.9-4.9-.2-8.9-3.8-45.7-3.8-62.3 0-15.2 3.4-30.5 10.7-42.4 20.2-7.9 6.4-10 8.6-15.6 16.8-18.8 27.1-25.2 43.4-34.5 88-.9 4.4-2.6 11.1-3.7 15-2.5 8.7-5.4 23.1-6.3 31-.8 8-3.6 28.3-6.6 48.1-1 6.7-.9 10.8.4 24.5 1.8 18.3 4.9 36.3 7.8 45.4 1.1 3.3 1.9 6.7 1.9 7.5 0 1.8 7.1 19.2 14 34 2.6 5.8 6.5 14.8 8.5 20 2.1 5.2 4.8 11.3 6 13.5 1.2 2.2 3.2 6.6 4.4 9.8 2.6 7.3 14.2 29.4 22.3 42.9 3.4 5.7 7.8 14.1 9.8 18.8 2.1 4.7 5.1 11.4 6.8 15 1.7 3.6 4.3 9.4 5.8 13 1.4 3.6 4.9 11.2 7.7 17 4.9 10.2 9.1 21.4 18.3 49 3.6 10.9 4.6 15.4 5 23 .3 5.2 1 10.8 1.4 12.3 1.3 3.9-1.9 9.5-8.8 15.7-6.7 6-14.1 9-22.1 9-5.1 0-6.4-.4-10.3-3.4-2.5-1.9-7.9-5.5-12.1-8-16.9-9.9-34.6-26.3-52.2-48.1-10.9-13.6-11.4-14.3-18.4-28-3.4-6.6-7.7-14.9-9.6-18.5-1.8-3.6-4.3-8.5-5.4-11-1.2-2.5-4.1-8.3-6.5-13-2.5-4.7-4.5-9.2-4.5-10-.1-.8-1-3.7-2-6.5-2.9-7.3-8.1-25.4-8.1-28 0-1.2-1.1-7.2-2.5-13.3-1.4-6.1-2.5-12.8-2.5-14.8 0-2.1-1.4-9.4-3-16.3-1.7-6.9-3.5-14.7-4.1-17.2-1.6-7.3-4-23.8-4.6-31.6-.6-7.9-1.8-9.9-5.6-8.9-3 .7-5.1 4.7-5.1 9.4.2 8.7 2.9 26.7 6.4 41.2.5 1.9 1.6 8.9 2.5 15.5 5.8 41.6 10.8 60.5 22.6 85.5 8.6 18.5 19 38.8 23.7 46.8 1.8 2.9 3.2 5.5 3.2 5.9 0 1.3 16.7 20.7 34.2 39.6 3.4 3.7 2.8 4.6-4.9 7.2-3.2 1-6.9 2.7-8.3 3.8-4 3-9 10.7-10.6 16.5-2.3 7.7-4.6 9.8-14.9 13.3-4.9 1.7-9.5 3.5-10 3.9-.6.5-3.3 1.6-6 2.5-11.7 4-36.3 18-40.6 23.1-2.5 3-15 8.4-19.6 8.4-4.5 0-12.7-1.9-18.3-4.2-9.2-3.9-21.3-13.9-26.4-21.9-1.8-3-1.8-3.2-.1-6.7 1.2-2.6 2-7.8 2.6-17.2.5-7.4 1.4-20 2-28 1.1-13.9 1.4-69.6.5-93.9-.6-13.5-1.6-21-4.6-34.1-5.1-22-9.4-47.2-10.5-61-1.3-17.9-4-40-5.1-43-.4-.8-1.2-6.5-1.9-12.5-.7-6.1-2-14.2-2.9-18-1.3-5.8-1.6-15.1-1.6-54.1 0-39.7-.2-47.3-1.4-48.3-3.4-2.8-6.4 7.9-6.5 23.6-.1 4-.5 13.4-1.1 21-1.4 19.1-.6 54.1 1.4 61.6.9 3.2 1.6 7.2 1.6 9 0 3 .6 6.7 4.5 30.7.8 4.7 1.7 12.3 2 17 1.1 13.7 4.5 40.9 6.1 48.5.8 3.8 2.1 10.1 2.9 14 .8 3.8 2.4 11.3 3.5 16.5 3.6 16.5 5.1 91.1 2.6 129.5-.3 4.9-.7 14.2-.9 20.5-.2 10.5-.4 11.5-2.2 11.8-2.6.5-4.5 3-3.8 5 .4 1 2.2 3.7 4 6.1 7.3 9.7 3.2 9.7-14.6.1-4.1-2.2-7.9-4-8.4-4-1.9 0-9.6-5.5-9.7-6.9 0-1.1 1.5-1.2 7.7-.7 4.2.4 9.2 1.4 11.1 2.2 1.9.8 3.6 1.4 3.8 1.4.2 0 .4-1.9.4-4.3-.1-3.6-.6-4.6-3.5-6.8-3.2-2.4-4.4-2.6-13.2-2.8-10.1-.1-14.1.8-31.8 7.4-9.4 3.5-21.3 5.9-29 5.8-22.1-.3-40.3-4.4-47.6-10.7-2.3-2-4.8-3.6-5.5-3.6-2 0-12.6-6.6-18.4-11.4-3-2.5-6.9-5.7-8.6-7-2-1.6-6.2-8.4-11.7-18.9-4.8-9.1-9.4-17-10.2-17.7-.8-.7-1.5-1.8-1.5-2.4 0-1.6-6.4-4.9-8.6-4.4-2.6.5-3 2.8-.5 2.8 3 0 9.1 2.7 9.1 4 0 1.7 12.8 26.9 15.4 30.4 1.3 1.7 3.1 4.7 3.9 6.6.8 1.9 2.6 4.5 3.8 5.8 3.4 3.3 16.7 13 20.3 14.9 1.7.9 5.5 3.5 8.4 5.9 5.9 4.8 12 7.3 23.7 9.8 4.4.9 9.4 2.1 11.1 2.7 7.8 2.4 26.3 1 37.2-2.8 5.5-1.9 21.4-1.3 29.2 1.1 6.3 2 20.8 8.4 23 10.3 3.5 2.8 17.5 8 19.5 7.2 4.5-1.7 7.1-1 10.4 3.1 1.7 2.2 3.7 4 4.4 4 .7 0 1.8.9 2.5 2 .7 1.2 3.4 3.4 5.9 5 3.7 2.4 5.8 3 10.1 3 3.8 0 6.2.6 8.3 2.1 1.6 1.1 5.1 2.4 7.9 2.8 4.8.8 5.4.6 12.1-3.5 3.9-2.4 8.7-5.7 10.7-7.4 2-1.6 4.2-3 4.8-3 .7 0 1.4-.6 1.7-1.4.6-1.5 26.1-14.6 28.6-14.6.9 0 3.6-1.1 6-2.5 2.3-1.4 5.1-2.5 6.1-2.5s3.8-1.1 6.1-2.5c2.4-1.4 5.3-2.5 6.4-2.5 1.1-.1 3.8-.8 6-1.6 7.6-2.8 21.7-5.1 37-5.9 5.5-.3 11.5-.8 13.3-1.2 2.1-.3 4.7.1 7 1 3.9 1.7 19.8 3 33.5 2.8 7.8-.2 7.9-.2 16.9-6.1 7.4-4.8 9.8-7 12.9-11.9 2.1-3.3 4.1-7.7 4.5-9.8.4-2.1 1.6-5 2.7-6.5 3.1-4.2 2.8-18.7-.7-29.8-1.5-4.7-3.4-10.1-4.3-12-2.2-5-5.2-13.6-6.9-19.9-.8-2.9-3.2-8.8-5.4-13-4.1-8-16-34.3-16-35.3 0-2.3-13.7-29.8-18-36.3-1.5-2.2-4.2-6.7-5.9-10-1.8-3.3-5-9.4-7.3-13.5-2.2-4.1-5.4-10.9-7-15-1.6-4.1-4-9.4-5.4-11.7-1.3-2.3-2.4-4.8-2.4-5.6 0-.8-1.3-4.1-3-7.3-1.6-3.2-3-6.3-3-6.7 0-.9-3.1-7.8-9.1-20.5-2.1-4.5-3.9-8.5-3.9-8.7 0-.3-1.3-3.3-2.9-6.7-1.7-3.5-3.6-9.2-4.5-12.8-.8-3.6-2-7.8-2.6-9.5-.6-1.6-1.5-5.9-2-9.5-.5-3.6-1.6-9.4-2.5-13-1.9-8.2-4-32-3.7-42.5.1-4.4.9-11.4 1.7-15.5.7-4.1 2.1-13.1 3-20 3.1-24.3 4.6-33.6 7.5-45 1.5-6.3 4.2-17.8 6-25.5 7.5-33.7 13.3-48.5 27.3-70.5 11.8-18.6 20.2-26.5 37.3-35.3 21.6-11 54.6-14.7 76.9-8.7 11.7 3.3 30.7 7 35.1 7 2.3 0 5.7.6 7.5 1.4 1.9.7 7 1.9 11.4 2.5 8.1 1.2 13 2.2 20.8 4.2 6.7 1.6 18.2-.3 26.6-4.5 7.3-3.7 11-7.3 13-12.7.7-1.9 1.9-4.9 2.7-6.7 1.6-3.6 1.9-12.3.5-15-.4-.9-2.5-5.2-4.6-9.5-2-4.2-4.9-8.6-6.4-9.7-1.4-1.1-3.3-2.6-4.1-3.4-2.4-2.3-15.9-9.2-21.7-11.1-6.7-2.1-7-4.5-1.4-9.9 2.2-2.2 4.9-6.1 6.1-8.8 1.9-4.4 2-5.5 1-10.5-.9-3.9-2-6.3-3.8-7.7-1.4-1.2-4.4-3.9-6.6-6.2-6.5-6.4-15.5-12.3-28.5-18.4-13.8-6.6-16.6-7.2-37.1-7.7-17.8-.4-19-.3-32 2.5-25.3 5.6-32.6 8.6-54.7 22-20.3 12.4-34.2 23.5-50.1 40-4.6 4.8-11.4 11.8-15.1 15.7-6.7 6.9-10.7 11.4-18.5 20.8-4.7 5.6-6.9 5.9-15.2 2.1C616 357.6 594 352 585.6 352c-1.7 0-4.8-.3-6.8-.6-3.2-.6-3.8-1.1-3.8-3.1 0-4.8 3.3-22.8 4.4-24 1.4-1.5 41.7.8 56.4 3.2 9.3 1.6 12.6 1.6 11-.1-.7-.6-14.5-3.8-26.3-6-4.4-.9-15.4-2-24.5-2.6-9.1-.5-16.8-1.3-17.3-1.7-1-.9-3.3-16.9-2.5-17.6.9-.9 21.8-2.4 35.8-2.6 6.9-.1 14.5-.6 17-1.2 3-.6 6.1-.6 9 0 3.2.7 5.6.6 7.9-.2 3.4-1.1 3.4-1.1-4.5-2.8-13.6-2.9-26.9-3.8-44.6-3.1l-16.8.7v-2.6c0-1.9 1-3.3 3.4-4.9 1.8-1.3 5.8-3.9 8.7-5.9 3-2 6.1-4.4 6.9-5.4.8-.9 4.6-3.9 8.5-6.5 3.9-2.7 8.6-6.5 10.4-8.7 1.9-2.1 6.6-7.2 10.5-11.3 9.7-10.3 19.2-21.4 20.7-24.2.6-1.3 2.8-4.1 4.9-6.3 3.9-4.1 16-22.4 16-24.1 0-.6 1.4-3.2 3.1-6 1.8-2.7 6.1-10.5 9.6-17.4 3.6-6.9 6.9-13 7.3-13.5.5-.6 1.8-3.9 3-7.5s3.5-9.3 5.1-12.8c1.6-3.5 4.3-11.4 6-17.5 1.7-6.2 3.5-12.7 4.1-14.5 1.1-3.6 2.3-10.5 3.7-21.3 1.2-9.7 2.8-12.3 7.6-12.9 3.7-.5 3.9-.7 4-4 0-2.9.4-3.6 3-4.3 8.4-2.6 21.5-8.1 17-7.2-1.6.3-4.9.8-7.2 1.2-4.2.5-4.3.5-4.3-2.3 0-2.4.8-3.4 5.1-5.9 10.8-6.4 12-7.3 13.5-9.4.8-1.1 1.4-2.1 1.2-2-.2 0-1 .3-1.8.6zm75.9 235.1c-3 2.3-7 3.9-5.2 2.1 1.3-1.3 5.4-3.7 6.7-3.8.5-.1-.2.7-1.5 1.7zm11.7.7c-.1.9-1.6 2.3-3.3 3.3-7.7 4.2-10.1 5.7-13.8 8.6-5.1 4-8.5 5.9-8.5 4.7 0-1.6 19.4-15.3 25.7-18 .1-.1 0 .6-.1 1.4zm16.4 6.9c0 .8-9.2 5.8-9.7 5.3-.2-.3.6-1.1 1.9-1.8 1.2-.8 3.2-1.9 4.3-2.5 2.1-1.3 3.5-1.7 3.5-1zm-11 6.1c0 .2-1.3 1.1-3 2-3.8 1.9-4 1.1-.2-.9 3.1-1.7 3.2-1.8 3.2-1.1zm19.5 6.1c-1.1.9-4.5 2.8-7.5 4.2-3 1.4-11 6-17.8 10-6.7 4.1-12.5 7.3-12.7 7-.2-.2 2.4-2.1 5.8-4.2 3.4-2 8.5-5.1 11.2-6.8 2.8-1.7 7.5-4.4 10.5-6 3-1.7 6.6-3.7 8-4.4 3.4-1.9 5-1.7 2.5.2zm11 3.4c0 .9-2.9 2.5-8 4.2-4.4 1.5-8.2 2.8-8.5 2.7-.3 0 2.2-1.3 5.5-3s6.4-3.7 6.8-4.5c1.1-1.9 4.2-1.4 4.2.6zm1.8 11.7c-.3 1-1.1 2.4-1.7 3.2-.5.7-1.1 2-1.2 2.8-.1.7-.8 2.1-1.5 2.9-1.7 2-9.7 5.4-12.8 5.4-2-.1-1.1-.8 3.9-3.1 5.5-2.6 8.3-4.8 8.5-6.9 0-.3.3-1 .7-1.6.5-.7-.3-1.1-2.2-1-1.7.1-3 .6-3 1.3 0 .6-1.7 1.7-3.7 2.4-2.1.6-6.3 2.4-9.5 3.9-3.1 1.6-6.7 3.1-8 3.5-1.2.4-3.4 1.5-4.8 2.5-3.1 2.1-7 3.6-5.5 2.1.6-.5 3.9-2.5 7.5-4.4 3.6-1.9 9.3-5.1 12.8-7.1 5.6-3.1 16.4-7.2 19.9-7.5.8-.1 1 .6.6 1.6zm-28.5 21.1c.2.7-.5 1.2-1.5 1.2-1 .1-3.5.7-5.5 1.4-2.1.8-3.8 1.2-3.8 1 0-.7 8.6-5.4 9.4-5.1.6.2 1.2.9 1.4 1.5zm12.2 5.6c0 .4-7 4.2-13.5 7.4-1.6.8-3.8 2.2-4.7 3-1.7 1.4-1.8 1.3-1.8-1.1 0-1.5.6-2.7 1.3-2.7.6 0 4.4-1.6 8.2-3.5 6.1-3 10.5-4.3 10.5-3.1zm14.6 4.2c-2.2.8-4.1 1.2-4.4.9-.3-.2.1-.7.9-.9.8-.2 2.1-.7 2.9-.9 3.6-1.2 4.1-.4.6.9zm-5.6 1.8c0 .2-.7.7-1.6 1-.8.3-1.2.2-.9-.4.6-1 2.5-1.4 2.5-.6zm31 8.4c0 1-2.4 2.4-16.9 9.9-6.9 3.6-13.3 7-14.1 7.7-.8.7-4 2.5-7 4s-7.1 3.7-9 4.8l-3.5 2 2.5-2.1c1.4-1.1 6.1-4.2 10.5-6.7 4.4-2.6 10.3-6.2 13-7.9 8-5.2 18-10.5 19.8-10.5.9 0 1.7-.5 1.7-1 0-.6.7-1 1.5-1s1.5.3 1.5.8zm-29.5 1.1c-.6.5-7.6 4.7-15.6 9.4-8 4.6-16.3 9.6-18.4 11-2.2 1.5-4.1 2.4-4.3 2.2-.3-.2.7-2 2.1-3.8 1.9-2.5 5.2-4.6 12.4-7.7 5.4-2.3 10.4-4.8 11.2-5.4 1.2-1 11.8-6.3 13.1-6.5.2-.1 0 .3-.5.8zm34.6 8.5c0 1.5-29.8 20.4-42 26.7-6.7 3.4-12.4 6.6-12.7 7.1-.7 1.1-3.4 1-3.4-.1 0-.5 2.1-2.2 4.7-3.7 2.7-1.5 5.8-3.7 7-4.8 1.3-1.2 4-3 6-4.1 2.1-1.1 7.6-4.3 12.3-7.2 12.5-7.7 26.4-15.3 27.3-15 .5.1.8.6.8 1.1zm-311.6 5.5c3.9.5 10.8 1.5 15.3 2.1 7.8 1 20.6 5 22.6 7 .4.4-2.2 4.9-6.1 10.2-6.1 8.3-9.6 14.5-17.9 32.3-7.2 15.5-15.2 38.9-18.9 55.1-1.3 5.9-2.8 11.1-3.3 11.6-1.5 1.5-3-1.4-8.1-14.4-3.3-8.7-6.4-14.6-10.4-20.2-5.2-7.2-5.7-8.4-5.7-13 0-2.9.5-5.7 1.1-6.3.7-.7.6-2.1-.5-4.8-.9-2.1-1.6-4.5-1.6-5.5s-1.8-4.9-4-8.8c-2.2-3.8-4-7.3-4-7.7 0-.4 2-3.1 4.3-5.9 5.5-6.4 12-19.4 16.1-32 .7-2 3.5-2 21.1.3zM906 372.5c-1.3 1.4-2.7 2.5-3.2 2.5-.4 0-4.5 2.4-9.1 5.4-9 5.9-12.9 8-16.7 9.1-1.4.4 1.9-2.1 7.3-5.4 5.4-3.4 10-6.1 10.2-6.1.2 0 3.2-2 6.7-4.4 6.8-4.7 8.5-5.1 4.8-1.1zm-66 .3c0 .5-1.7 1.6-3.7 2.6-2.1 1-6 3.2-8.8 4.9-2.7 1.8-6 3.2-7.2 3.2-3 .1-3 .2 8.9-6 12-6.2 10.8-5.7 10.8-4.7zm61.5 13.2c-2.8 3-15.2 9.7-16.1 8.8-.2-.3 2.4-1.9 5.9-3.7 3.4-1.7 7.6-4.3 9.2-5.6 4.1-3.3 4.5-3.1 1 .5zm-34.3 3c-1.8 1.7-4.2 3-5.4 3-2.6 0-2.4-.2 3.2-3.4 5.8-3.3 6.3-3.2 2.2.4zm-326.1 26c-8.7 17.3-19.4 33-24.4 36-1.8 1-3.8 2.4-4.5 3-2 1.8-2.7.3-.9-1.8 1-1 1.7-2.2 1.7-2.6 0-.4 1-2.2 2.3-3.9 1.2-1.7 2.7-3.9 3.2-4.9.6-.9 2.9-4.8 5.3-8.7 2.3-3.8 4.2-7.2 4.2-7.5 0-.3.9-1.5 2-2.6s2-2.7 2-3.6c0-2.3 5-8.4 6.9-8.4 1 0 2.6-.6 3.7-1.4 1-.8 2-1.3 2.1-1.2.1.1-1.5 3.6-3.6 7.6zm6.1 7.9c-1.1 2-2.3 4.7-2.7 6.1-.7 2.5-12.3 14.5-13.2 13.6-.2-.2 2.1-4.4 5.3-9.3 8.7-13.4 8.8-13.6 10.4-16.7l1.5-3 .3 2.9c.2 1.6-.5 4.5-1.6 6.4zm-23.6.3c-2 3.5-6.3 10.6-9.6 15.8-3.2 5.2-6.8 11.1-7.9 13.1-3.2 5.8-13.2 13.5-13.1 10.1.1-.4 3.5-4.8 7.6-9.7 4.2-5 8.3-10.4 9.1-12 .9-1.7 2.2-3.8 3.1-4.8 1.7-1.9 2.5-3.2 6.4-10.3 2.8-5.3 6.7-9.9 7.5-9 .3.3-1.1 3.3-3.1 6.8zm-8.6-.6c0 2.6-12.7 21-25.8 37.3-1.5 1.8-3.4 4.5-4.3 6-1.3 2.2-8.5 5.8-9.5 4.8-.2-.2 1.9-3.4 4.6-7.3 2.7-3.8 6.4-9.1 8.2-11.7 1.8-2.6 5-6.8 7.1-9.3 2-2.5 3.7-5.1 3.7-5.7 0-1.5 13.5-14.7 15-14.7.5 0 1 .3 1 .6zm-24 10.3c0 .5-1.3 2.2-2.8 3.8-1.6 1.5-5.8 7.3-9.5 12.8-3.6 5.5-8 11.8-9.6 14-1.7 2.2-4.6 6.4-6.6 9.3-3 4.4-4.7 5.9-10.1 8.3-3.7 1.7-6.8 2.9-7 2.7-.2-.2 1.1-2 2.9-4 1.8-1.9 6.2-7.1 9.9-11.4 3.7-4.4 9.5-10.9 13-14.5 3.5-3.7 8.3-9.6 10.7-13.2 2.5-3.6 5.4-7 6.5-7.6 2.7-1.3 2.6-1.2 2.6-.2zm-16.9 9.8c-2.8 3.1-5.1 6.1-5.1 6.5 0 .4-.7.8-1.5.8s-1.5-.5-1.5-1c0-1.7-2.5-1.1-3.7.9-.6 1-.9 2.8-.6 4 .4 1.4-.6 3.3-3.2 6.3-2 2.4-7.3 8.8-11.7 14.3-4.4 5.5-8.4 10.2-8.8 10.5-.4.3-1.2 1.5-1.9 2.7-.8 1.6-2.1 2.3-4.2 2.3-1.7 0-4.4.9-6 2.1-4.1 2.9-3.6.6.9-4.4 2.1-2.3 8.6-10.1 14.4-17.2 5.9-7.2 13.6-15.9 17.2-19.4 3.6-3.4 6.6-6.7 6.6-7.1 0-.8 11.6-6.8 13.3-6.9.5-.1-1.4 2.5-4.2 5.6zm-20.5 6.2c-1 1.1-2.3 1.8-3 1.5-.6-.2-2 .2-3.1 1.1-1.5 1.1-1.7 1.7-.7 2.3.9.6-.4 2.9-5 8.6-3.5 4.3-7.9 9.9-9.9 12.4-2 2.6-4.9 5.8-6.5 7.2-1.8 1.6-2.3 1.7-1.2.5.9-1.1 3.8-5.7 6.5-10.1 7.2-11.9 16.2-22.8 20.3-24.5 4.2-1.9 4.9-1.6 2.6 1zm-25.2 18.8c-4.8 8.1-9.1 15.2-9.5 15.6-.3.5-1.6-.8-2.9-2.8l-2.2-3.6 4.2-5.3c4.7-6.2 7.5-9.1 11.9-12.4 1.7-1.3 3.1-3.2 3.1-4.2 0-1.6 2.7-3.2 3.9-2.4.2.2-3.6 7-8.5 15.1zm-10.4-3.2-8.4 8.4-1.6-2.7c-1.6-2.6-1.6-2.8.7-5.8 1.3-1.8 3.8-3.7 5.6-4.4 1.8-.6 4.6-1.8 6.2-2.5 6.3-2.8 5.7-1.2-2.5 7zm-61-3c0 .8-.6 1.5-1.4 1.5-.8 0-2.1.3-3 .6-1 .4-1.6.1-1.6-.9 0-1.4 1.6-2.3 4.8-2.6.6 0 1.2.6 1.2 1.4zm17 3.4c0 1.2-2 2.5-2.7 1.8-.7-.7.6-2.7 1.8-2.7.5 0 .9.4.9.9zm-110 1c0 1.2-2 2.5-2.7 1.8-.7-.7.6-2.7 1.8-2.7.5 0 .9.4.9.9zm8.8.7c1.2.4 2.2 1.1 2.2 1.8 0 1.5-12.8 12.6-14.6 12.6-3 0-1.4-4.9 3.3-10 5-5.2 5.3-5.4 9.1-4.4zm88.2 1.8c0 1.8-1.3 2.7-5.1 3.3-3.3.5-3.9-1.2-1.1-3.3 2.3-1.8 6.2-1.8 6.2 0zm-75.5 2.2c0 .6-2.3 2.9-5 5.1-2.8 2.2-7.7 6.6-10.9 9.7-5.8 5.8-8.6 6.6-8.6 2.6 0-1.8 5.9-8 15.5-16.4 3.1-2.7 9-3.3 9-1zm113 7.9c12.2 9.7 14.1 12.2 15.3 21 1.1 7.8 0 33.4-1.7 40-.6 2.2-1.6 6.5-2.3 9.6-1.4 6-3.3 9.5-7.5 13.4-3.2 2.9-18 11.5-23.3 13.5-1.9.8-4.6 2.1-6 3-6 3.8-11 5.2-22.5 6.4-17.3 1.8-27.3.8-36.1-3.6-14.3-7.2-21-13.8-24.4-23.8-2.4-7.1-2.3-13.6.6-29 1.9-10.6 8-24.6 12.6-29.5 1.6-1.7 7-7.4 12-12.8 5.1-5.3 9.7-9.7 10.2-9.7.7 0 1.1 3.9 1.1 10.8 0 10.1-.2 11-3.4 17.5l-3.4 6.8 1 9.8c1.4 12 3.8 17.3 11 23.5 6.2 5.3 12.6 7 23.8 6.4 7.5-.3 7.1-.1 16.5-8.1.8-.7 2.7-2 4.1-2.9 1.5-1 3.7-3.3 4.9-5.4 2.1-3.4 2.2-4.3 1.6-14.1-.5-8.2-1.1-11.3-2.7-13.9-1.1-1.9-2.5-3.4-3-3.4-.6 0-2.1-1.1-3.4-2.5-3.5-3.4-3.4-8.7 0-10.3 2.8-1.3 3.2-3 1-3.8-.8-.4-1.5-1-1.5-1.5 0-1.6 6.2-14.4 7.4-15.2 3-2.1 8.9.4 18.1 7.8zm-100.1-6c-.3.8-2.2 2.5-4.2 3.7-4.1 2.5-11.4 8.7-18.9 16-4.3 4.2-5.6 4.9-7.7 4.4-3.3-.8-3.3-2.9-.1-4.6 1.4-.7 2.5-1.7 2.5-2.1 0-.9 10.2-10.7 16-15.3 3.5-2.8 5.4-3.6 8.7-3.6 3.3 0 4.1.3 3.7 1.5zm14.6-.6c0 1.7-10.7 12.1-12.6 12.1-1 0-3.2 1.4-4.9 3.1-1.6 1.7-6.2 5.8-10.2 9-5.9 4.9-7.7 5.8-9.8 5.3-4.1-1-2.8-3.5 5.7-10.9 4.4-3.9 9.3-8.2 10.8-9.8 1.6-1.5 3.3-2.7 3.8-2.7s2.4-1.5 4.3-3.4c2.9-3 4.1-3.5 8.2-3.5 2.6-.1 4.7.3 4.7.8zm30 2c0 .5-.7 1.2-1.6 1.5-2.4.9-2.8.7-1.4-.9 1.4-1.7 3-2 3-.6zm26.8.3c-.5 1.6-8.7 6.2-9.5 5.4-.7-.7 1.6-3.6 2.9-3.6.5 0 1.6-.7 2.4-1.5 1.9-1.8 4.7-2 4.2-.3zm-16.8 5.3c0 .2-1 .9-2.2 1.5-2.2 1.1-2.2 1-.4-.4 2.1-1.7 2.6-1.9 2.6-1.1zm11 7.5c0 1.4-.7 2-2.4 2-1.3 0-3 .7-3.7 1.6-.7.9-4.8 3.3-9 5.3-5.8 2.8-7.5 3.2-6.8 1.9 1.1-2.1 18.3-12.2 21.7-12.8.1 0 .2.9.2 2zm-73 10.9c0 1-.7 2.1-1.5 2.5-.8.3-1.5 1.2-1.5 2.1 0 .9-.9 1.5-2.5 1.5-3 0-3.5-2.9-.6-3.7 1.1-.3 2.1-1.3 2.4-2.4.7-2.5 3.7-2.5 3.7 0zm67.3 3.5c.6 1.4-1 3.6-2.7 3.6-.5 0-1.9.8-3 1.8-1.9 1.7-14.5 7.2-16.4 7.2-.8 0 1.5-2 9.6-8.1 7.4-5.7 11.5-7.1 12.5-4.5zm11.7 11c-1.4 1.4-9.3 3.7-10 2.9-.3-.3 0-.7.6-1 .5-.2 2.6-1.4 4.5-2.7 2.5-1.8 3.7-2.1 4.7-1.3.9.7 1 1.3.2 2.1zm-36.7 2c1.3 1 1.4 1.5.4 1.9-1.5.6-5-1.7-4-2.6.9-1 1.5-.8 3.6.7zm13.3 5.1c-1.1.8-2.5 1.5-3 1.5-.6 0-.2-.7.8-1.5 1.1-.8 2.5-1.5 3-1.5.6 0 .2.7-.8 1.5zm29.4-1.1c0 1.1-1.9 1.5-2.5.6-.3-.5.1-1 .9-1 .9 0 1.6.2 1.6.4zm-5.6 2.1c-1 .8-2.6 1.4-3.4 1.4-1.1 0-1-.3.4-1.4 1.1-.8 2.7-1.5 3.5-1.5 1.1 0 1 .4-.5 1.5zm-18.4 5c0 .4-6.7 3.5-7.7 3.5-1.6 0 1.4-2.1 4-2.9 1.8-.5 3.3-1 3.5-1 .1-.1.2.1.2.4zm24 1.5c0 1.1-.5 2-1.1 2-.7 0-2.3 1.2-3.6 2.6-1.3 1.4-2.7 2.3-3.1 1.9-.4-.4-.1-1 .6-1.2.6-.3 1.2-1 1.2-1.6 0-1.3 4-5.7 5.2-5.7.4 0 .8.9.8 2zm-20 5.3c0 .9-9.1 5-9.7 4.4-.3-.4 1.4-1.5 3.8-2.6 4.4-2 5.9-2.4 5.9-1.8zm8 5.6c0 .5-1 1.1-2.2 1.4-2.2.6-2.2.6-.4-.8 2.3-1.7 2.6-1.8 2.6-.6zm-26 1.6c0 .8-.4 1.5-.9 1.5-1.3 0-2.2-1.6-1.4-2.4 1.1-1.1 2.3-.6 2.3.9zm16.7 2.1c-.3.3-1.2.4-1.9.1-.8-.3-.5-.6.6-.6 1.1-.1 1.7.2 1.3.5zm315.9 412.9c5.9 2.8 13.6 10.1 13.2 12.5-.2.9-1.5 1.5-3.3 1.6-11.2.3-28 1.6-33.3 2.6-7.8 1.5-9 .7-7.2-4.9 1.7-5.1 5.5-9 11.5-11.8 6.7-3.1 12.5-3.1 19.1 0zM77.8 46.7c.6.2 1.8.2 2.5 0 .6-.3.1-.5-1.3-.5-1.4 0-1.9.2-1.2.5zM138.1 87.4c-2.7 3.5-3.1 5.5-1.6 9.6 2.3 6.6 1.9 9-2.1 13.1-4.4 4.5-4.1 6 2.7 12.8 4.8 4.7 4.9 5 4.9 10.8 0 7.1 2.9 12.1 8.6 14.8 5.8 2.7 14.4.8 14.4-3.2 0-1.1-.6-1.3-2.2-.8-1.3.4-4.9.9-8 1.2-5.5.5-5.8.4-6.8-2.1-1.5-4 0-14.3 2.4-15.8 1.1-.7-1.6-2-8.1-3.7-5-1.4-6.7-3.9-5.7-8.4.8-3.9 1.9-4.7 6.6-4.7h3.6l-1.6-3.3c-.9-1.7-2.2-3.8-2.9-4.5-1.6-1.7-1.7-10.4-.1-12 .7-.7 2.6-1.2 4.2-1.2 2.2 0 2.7-.3 1.9-1.1-1.7-1.7-9.1-2.8-10.2-1.5z"/><path d="M623.3 135.1c-8.8 1.5-26.8 9.3-32.2 13.9-2.1 1.8-2.2 2.3-1 3.1 2 1.3 2.1 1.3 8.5-2.6 3.3-2 8-4.2 10.6-5 2.5-.7 5.7-1.9 6.9-2.6 3-1.6 12.6-3.8 16.7-3.9 8.3-.1.5 11.1-13.6 19.3-3.5 2-6.7 3.7-7.1 3.7-.5 0-1.4.6-2 1.4-2.1 2.5 1.5 3.5 6.7 2 2.5-.8 6.9-1.4 9.9-1.4 4.8 0 5.3.2 5.3 2.2 0 3.7-3.4 8.2-8.1 10.5-2.4 1.2-8.9 3.9-14.4 5.9l-10 3.8.3 5.2c.4 4.9.2 5.4-2.5 6.7-1.5.8-5.2 2-8.1 2.6-6.5 1.4-11.5 3.8-10.6 5.2 1.3 2.1 17.4-1.7 22.7-5.3 2.3-1.7 2.7-2.6 2.7-6.7 0-5.1.9-6.5 5-7.4 10.8-2.3 22.9-8.9 26.7-14.6 2.4-3.6 2-5.7-1.9-9.5-2.4-2.3-1.7-6.1 1.7-8.8 3.6-2.8 6.7-8.4 6.3-11.4-.6-5.4-8.4-8.1-18.5-6.3zM204.7 138.6c-.4.4-.7 2.2-.7 4.1 0 3.5 2.3 4.7 3.4 1.7.7-1.8-1.6-6.8-2.7-5.8zM194.1 158.7c-.1 5.2-5.5 17.2-10.9 24.5-2.2 2.9-4.5 6.6-5.1 8.3-1 2.8-1 2.9.4 1 .8-1.1 2.9-3.8 4.6-6 4.7-6.2 11.1-17.5 12.5-22 .9-3.3.9-4.7-.1-7l-1.3-3-.1 4.2zM461.5 187.7c-2.7.8-7.2 1.9-10 2.4-6.8 1.3-21.3 4.6-31 7.1-8 2-20.2 7.9-26.2 12.7-8 6.4-18 16.9-19.7 20.8-1.7 3.8-1.7 5.1-.7 13.8 1.1 9.1 4.3 21.7 6.2 24.1.5.6.9 11.2.8 23.5-.1 21.5 1.2 40.5 3.1 47.9 2.9 11.1 10.5 21.4 17.8 24.3 18.1 7.2 35.8 6.9 48.2-.9 4.3-2.6 14-12.8 14-14.6 0-.7 1.2-2.7 2.8-4.5 1.5-1.8 4.8-7.4 7.5-12.6 3.4-6.8 6.4-10.9 10.8-15.3 3.4-3.2 8-7.8 10.4-10.1 2.6-2.7 6.3-8.6 10.1-16l5.9-11.8-.1-9c-.1-8.6-2.6-20.9-4.5-22.1-.5-.3-.9-1.6-.9-3s-.8-3.7-1.8-5.2c-1.1-1.5-3.2-4.6-4.8-7-5.4-7.9-7.4-11.7-7.4-14.3 0-1.5-.6-3.2-1.4-3.8-.7-.6-1.6-2.9-1.9-5-.7-5.6-6.7-14-13.3-18.9-6.2-4.6-6.6-4.7-13.9-2.5zm1.5 6.7c0 3.5-15.7 11.2-20.4 10-1.5-.3-2.9.3-4.6 2-2.2 2.5-5.1 3.5-5 1.8.1-1.5 9.6-11 11.8-11.6 1.8-.6 2.2-.4 2.2 1.4 0 2.1.2 2 3.8-.8 4.3-3.4 5.7-4 9.5-4.1 1.7-.1 2.7.4 2.7 1.3zm7 2.6c1.1 2.7 1.1 3.2-.6 4.5-1.1.8-2.3 1.5-2.8 1.5-.6 0-5.1 3.1-10 6.9-8.5 6.4-13.6 9.2-13.6 7.5 0-.4.7-1.6 1.7-2.6.9-1 1.3-2.1 1-2.4-.3-.4-3.1 1.5-6 4.2-5.2 4.7-14.1 9.3-15.4 8-.4-.3.6-1.9 2-3.4 1.5-1.6 2.7-3.3 2.7-3.9 0-.7.9-1.5 2-1.8 1.1-.3 2-1 2-1.3 0-1.1 10.8-6.2 13-6.2.5 0 1 .6 1.2 1.4.2 1 2.5-.1 7.7-3.5 4-2.7 8-4.9 8.8-4.9 1 0 1.3-.6.9-1.6-2-5.2 3.3-7.4 5.4-2.4zm-34 2.4c0 1.4-12.9 13.5-16.1 15-1.1.5-2.2.6-2.5.3-.6-.6 4.1-7.5 6.1-8.9.6-.5.5-.8-.4-.8-.7 0-4.6 3.1-8.5 7-6.4 6.1-16.2 12.7-17.4 11.5-.2-.2.6-1.9 1.9-3.7 2-2.9 2-3.1.3-1.6-1.1 1-2.6 1.8-3.2 1.8-.6 0-3.1 2-5.6 4.5-2.6 2.5-5.1 4.5-5.6 4.5-1.3 0-1.3-2.7 0-3.5.6-.3 1-1.4 1-2.4 0-1.9 7.4-10.1 9.1-10.1.6 0 3.6-1.8 6.7-3.9 3.2-2.2 7.1-4.3 8.7-4.6 1.7-.4 4.1-1 5.5-1.5 5.8-1.9 8-2.1 8-.5 0 2 .8 1.9 4.4-.8 4.8-3.7 7.6-4.5 7.6-2.3zm38.5 2.7c.9 1.4-2 4.4-5.6 5.9-4.4 1.8-4.7.4-.9-3.5 3.5-3.6 5.4-4.3 6.5-2.4zm5 7.8c.9 1.5-2.9 4.4-10.9 8.4-7.6 3.8-9.6 4.4-9.6 2.9 0-1.7 2.7-4.3 8.5-8.2 5.7-3.8 10.7-5.1 12-3.1zm-51.5 5.9c0 1.3-11.1 11.6-15.3 14.1-4.2 2.6-5.4 2.3-3.7-.8 1.7-3.3-.1-2.5-5.5 2.4-4.7 4.2-7.5 5.6-7.5 3.6 0-.5 3.2-3.8 7-7.5 6.8-6.4 10-8.1 10-5.2 0 1.8 4 .9 4.7-1.1 1.2-3 10.3-7.9 10.3-5.5zm31 1.2c0 3.1-19.9 16.4-21.8 14.6-.5-.6 5.9-8.4 7-8.5.4-.1 3.3-1.7 6.5-3.6 5.9-3.6 8.3-4.3 8.3-2.5zm22.7 1.7c.5 1.3-14.8 12.7-23.1 17.4-3.8 2.1-6.1 2.9-6.3 2.2-.6-1.6-2.8-.6-8.4 3.4-5.3 3.8-8.4 4.3-7.6 1.4.3-1.5-.1-2.1-1.6-2.3-3.1-.4-3.2-3.2-.2-4.6 3.5-1.6 5.5-1.5 5.5.3 0 2.3 1.4 1.8 3.7-1.4 2.1-2.8 8.5-6.4 13.8-7.7 2.5-.6 2.8-.5 2.2 1.5-.4 1.8.4 1.5 5.4-2.2 12.7-9 15.8-10.5 16.6-8zm-44.7 6.9c0 .4-2.2 2.9-4.9 5.5-5.2 5.1-8.1 6.2-8.1 3.1 0-2.2 1.9-4.2 4-4.2.9 0 2.7-1.1 4-2.5 2.2-2.3 5-3.4 5-1.9zm-39 2.5c0 1.6-12.7 13.9-14.4 13.9-4.5 0 2-9.7 8.9-13.3 3.5-1.9 5.5-2.1 5.5-.6zm87 .3c0 .8-1 1.8-2.1 2.1-1.2.4-6.7 4.4-12.3 8.9-5.5 4.5-13 10-16.6 12.1-3.6 2.2-6.8 4.4-7.1 4.8-.3.5-1.9.7-3.5.5-3.6-.4-4.7-4.3-1.5-5.3 1.2-.3 2.1-1 2.1-1.4 0-.5 1.5-1.4 3.3-2.1 5.9-2.2 8.2-3.4 12.2-6.5 5.8-4.5 11.2-7.9 18-11.4 6.8-3.5 7.5-3.7 7.5-1.7zm-61 2.2c0 2.4-17.2 16.4-20.2 16.4-3.1 0 6.1-11.2 12.6-15.1 2.9-1.8 7.6-2.6 7.6-1.3zm63.5 2.3c.7 1.2-3.4 4.1-5.7 4.1-2.4 0-2.3-.8.5-3.1 2.4-2 4.3-2.4 5.2-1zm-80.5 3.7c0 1.4-15 15.3-18.1 16.8-4.1 2.1-4.2 2.1-3.7-.9.4-1.7.1-2.5-.8-2.5-2.5 0-1.5-2.7 2-5.4 3.8-2.9 5.2-3.2 5.9-1.4.3.9 1.4.5 3.3-1.3 4.5-4.1 11.4-7.3 11.4-5.3zm86 3.6c2.7 2.9 2.1 4.2-2.1 4.6-2.1.2-5.9 2.2-10.2 5.3-3.7 2.7-7.2 4.9-7.7 4.9s-1.1.8-1.4 1.8c-.3.9-2.3 2.5-4.3 3.4-2.1.9-7.2 4.6-11.5 8.2-7.3 6.3-10.8 8.1-10.8 5.3 0-.6 5.6-5.5 12.3-10.9 6.7-5.3 14.7-11.6 17.7-14 7.6-6 14.4-10.8 15.2-10.8.4 0 1.6 1 2.8 2.2zm-77.6 7.5c.4 1.4.3 2.9-.3 3.2-.5.3-1.1 2-1.3 3.6-.3 2.6-1.3 3.5-8.6 7.3-6.7 3.5-8.3 4-8 2.6.2-1 2.2-3.3 4.6-5 2.3-1.8 3.8-3.6 3.2-3.9-2.3-1.4-.9-5.2 2.7-7.8 4.8-3.4 6.9-3.4 7.7 0zm28.6.2c0 1.3-2.9 3.5-3.7 2.8-.7-.8 1.5-3.7 2.8-3.7.5 0 .9.4.9.9zm-43.2 5c-.6 1.5-11.5 11.1-12.7 11.1-.6 0-1.1-.8-1.1-1.8 0-3 8.7-10.2 12.3-10.2 1 0 1.7.4 1.5.9zm63.2 1c0 .5-4.3 4.1-9.6 8.1-6.7 4.9-10 6.8-10.7 6.1-1.4-1.4 5.8-8.2 12.8-12.2 5.1-2.9 7.5-3.6 7.5-2zm35.4 1.3c.8 1.3 1.8 4 2.1 6l.7 3.7-11.3 7.4c-6.3 4-12 8.1-12.8 9-1.4 1.8-4.1 2.3-4.1.8 0-.5 1.2-1.9 2.8-3.1 1.5-1.1 3.8-2.9 5.2-4 1.4-1 4.5-3.4 6.9-5.2 6.9-5.1 6.1-6.6-.9-1.7-3.5 2.4-7.3 5.1-8.5 5.9-1.2.8-4.7 3.3-7.6 5.6-3 2.2-6.8 4.8-8.6 5.7-1.7.9-3.3 2-3.5 2.4-.3.8-12.5 9.3-13.3 9.3-.3 0-.5-1.8-.5-3.9 0-3.5.6-4.4 4.8-7.8 2.6-2.1 7.9-5.9 11.7-8.4 17-11 30.3-20 32.1-21.8 2.5-2.6 3.1-2.6 4.8.1zM407.5 266c-.3.5 0 .8.7.5 2.5-.9 3.6.9 2.9 5-.6 4.1-3.5 6.7-12.3 11.4-2 1.1-4.6 2.6-5.7 3.3-2.5 1.6-3.6.6-2.2-2.1.7-1.3.8-2.2.1-2.6-2.2-1.3-.9-9.5 1.5-9.5.7 0 1.5-.3 1.7-.8.2-.4 2.6-1.9 5.3-3.4 5-2.7 9.2-3.7 8-1.8zm95.9 6.8c-.1.7-.2 2.3-.2 3.6-.2 1.8-2.2 3.9-7.3 7.8-12.6 9.5-21.1 14.8-23.3 14.7-3.8-.2-9.8 3.6-12.1 7.7-1.2 2.2-3.5 4.6-5 5.4-1.6.8-4 2.5-5.4 3.7-2.6 2.3-7.1 3.1-7.1 1.3 0-1.6 3.5-4.7 7.5-6.6 2-.9 4.2-2.8 4.8-4.2.6-1.4 4.8-5.1 9.2-8.3 4.4-3.1 11.2-8.1 15-10.9 20.7-15.3 24.2-17.3 23.9-14.2zm-95.3 10.9c-1.4 2.6-17 16.8-18.4 16.8-2.1 0-.7-4.9 2.1-7.3 3.4-3 15.4-11.1 16.5-11.2.4 0 .3.8-.2 1.7zM499 289c0 .6-1.6 4.2-3.5 8-2.9 5.8-4.4 7.5-9.2 10.6-3.2 2.1-6.4 3.7-7 3.7-.7 0-1.3.4-1.3.8 0 .3-.8.9-1.7 1.3-1 .3-3.1 1.5-4.8 2.6-6 3.9-8.7 5.1-10.8 4.8-1.2-.2-3.1.5-4.2 1.5s-2.7 2.4-3.5 3.1c-.8.7-2.5 1.6-3.7 2-1.1.4-2.4 1.8-2.7 3.1-.4 1.4-1.3 2.5-2.2 2.5-.8 0-1.7.7-2 1.5-.4.8-1.5 1.5-2.6 1.5-1 0-1.6-.5-1.3-1 .3-.6.1-1-.4-1-.6 0-1.1.4-1.1.8 0 1.3-8.6 7.2-10.4 7.2-.9 0-1.6-.8-1.6-1.8 0-1.7 7.1-7.1 15.4-11.9 1.4-.9 2-2 1.8-3.8-.2-1.7.1-2.5 1.2-2.5.9 0 1.6-.5 1.6-1 0-.6.7-1 1.5-1 1.7 0 9.5-4.9 9.5-5.9 0-1.2 7.9-4.3 9-3.6.6.4 1.9-.3 2.9-1.4 1-1.2 2.2-2.1 2.7-2.1s2-.9 3.4-2 3.3-2 4.3-2 1.5-.5 1.2-1c-.3-.6 0-1 .7-1s4.6-3 8.7-6.5c7-6.1 10.1-7.8 10.1-5.5zm-91 3.2c0 .6-1 2.2-2.2 3.5l-2.1 2.3h2.1c1.2 0 2.2.6 2.2 1.4 0 1.7-4.6 5.6-6.6 5.6-.8 0-1.4.4-1.4 1 0 .5-.4 1-1 1-.5 0-1-.9-1-2.1 0-1.9-.3-1.8-4.1 1.2-2.8 2.2-4.3 2.9-5.1 2.1-1-1 4.1-6.4 13.7-14.6 3.2-2.7 5.5-3.3 5.5-1.4zm49 6.7c0 2.3-2.1 6.1-3.3 6.1-.7 0-2.9 1.3-4.7 3-4.2 3.7-5.2 3.8-4.4.2.7-3.1 4.1-7.2 6-7.2.6 0 1.7-.7 2.4-1.5 1.4-1.7 4-2 4-.6zm-50.4 11.4c-.3 1.2-1.8 3-3.3 3.9-1.5 1-2.3 1.8-1.6 1.8.6 0 1.5-.5 1.8-1 .8-1.2 4.5-1.3 4.5-.1 0 .5-1.7 2.1-3.7 3.6-2.1 1.6-4.2 3.3-4.8 3.9-1.6 1.9-7.2 5.6-8.4 5.6-1.7 0-1.3-3.1.6-5.2 1.5-1.7 1.5-1.8 0-1.8-2.6 0-2-1.7 1.6-4.1 1.7-1.3 3.4-2.6 3.7-3 .3-.4 2.5-2.3 5-4.4 4.4-3.7 5.7-3.5 4.6.8zm68.4 9.3c0 1.8-6.4 9.4-7.9 9.4-1 0-2.4.7-3.1 1.5-.7.8-1.7 1.5-2.2 1.5-1.4 0-30.5 20.9-33.9 24.2-1.5 1.6-3.1 2.8-3.5 2.8-.4 0-2.2 1.2-4.1 2.6-2.1 1.6-4 2.3-5.1 1.9-1.4-.5-1-1.2 2.3-4 2.2-1.9 4-3.9 4-4.5 0-1.1 5-4 6.9-4 .7 0 2.8-1.4 4.7-3.1 1.9-1.7 4.4-3.8 5.7-4.6 1.2-.9 2.2-2.1 2.2-2.7 0-1.1 2.2-2.6 8.3-6 1.2-.6 4.8-2.8 7.9-4.9 3.1-2 6.1-3.7 6.7-3.7.5 0 1.1-.4 1.3-.9.4-1.1 7.8-6.1 8.9-6.1.5 0 .9.3.9.6zm-62 4.9c0 .8.6 1.5 1.4 1.5 2.3 0 2.6 2.7.6 5.3-2.4 3-18.8 13-20.1 12.2-1.2-.8-1.2-4.5.1-4.5s11.5-7.5 12.5-9.1c.9-1.4-2.7.4-4.7 2.4-2.9 2.8-8.9 5.9-10.5 5.3-2.2-.9-1.2-1.8 9.5-9 8.5-5.7 11.2-6.7 11.2-4.1zm21 4.4c0 .5-2.1 2.5-4.7 4.5-9.9 7.5-21.3 16.2-24.8 19.1-3.6 2.8-3.8 2.8-5.1 1-.8-1-1.4-2.4-1.4-3 0-2.9 15-13.6 27.5-19.6 6.2-3 8.5-3.5 8.5-2zm31 8.1c0 3.5-3.9 8.1-10.4 12.3-11.1 7.2-13.7 9-16.3 11.5-1.4 1.3-3.6 2.8-5 3.3-3 1.1-9.3 1.2-9.3.1 0-1.9 37.2-27.9 40.3-28.1.4-.1.7.3.7.9zm-10 17.8c0 .9-1.2 2.3-2.7 2.9-1.6.7-4 2.4-5.5 3.8s-3.4 2.5-4.3 2.5c-2.8 0-1.5-2.5 2.5-4.8 2.2-1.2 4.6-3.2 5.3-4.2 1.5-2.5 4.7-2.6 4.7-.2zm-38 2.1c0 .9-6.1 5.1-7.4 5.1-1.4 0-.5-2.3 1.7-4.1 2.3-1.9 5.7-2.5 5.7-1z"/><path d="M456 232c-.8.5-1.2 1.1-.9 1.4.2.3 1.1.1 1.9-.4.8-.5 1.2-1.1.9-1.4-.2-.3-1.1-.1-1.9.4zM401.9 271.6l-3.4 3.7 3.1-1.8c1.7-.9 3.6-2.6 4.2-3.6 2-3.1-.2-2.1-3.9 1.7zM538 208.6c0 .9.9 2.8 2 4.2 1.2 1.5 2.9 3.8 4 5.2l1.8 2.5.7-2.8c.9-3.5-.7-6.8-4.5-9-3.5-2.1-4-2.1-4-.1zM250 219.1c-4.6 4.9-6.2 9.3-8.4 21.9-1 5.2-3 13.3-4.6 18-3.2 9.3-6 23.7-6 30.9 0 10.9 3.3 22.1 7.1 24.2 1.2.6 3.4.6 6.4-.2 8-2 12.6-10.1 21-36.4 8.2-25.7 8.5-38.6 1.2-53-5.2-10.5-10.4-12.1-16.7-5.4zM311.3 325.3l-4.1 1.2 2.1 2.6c3.1 3.7 13.6 10.5 17.4 11.2 2.2.4 3.8.1 5.5-1.2 1.3-1 4.7-2.9 7.6-4.1 5.1-2.2 5.2-2.3 3.5-4.2-3.8-4.3-9.4-6.2-18.8-6.4-4.9-.2-10.9.2-13.2.9zM207 432.6c0 1.7 17 7.7 24.8 8.8 7.2 1 3.9-1.1-4.5-2.9-4.3-.9-10.6-2.7-14-4-3.5-1.3-6.3-2.2-6.3-1.9zM242.1 445.7c2.1 2.8 7.2 7.3 8.1 7.3 2.4 0-4.1-7.1-7.6-8.4-1.7-.6-1.7-.4-.5 1.1zM310.6 746.5c-.8 1.9-2.3 6.1-3.2 9.2-4.4 15.3-5.8 19.2-9.5 26.8-2.1 4.5-3.9 8.9-3.9 9.6 0 .8-.6 2.3-1.4 3.4-.7 1.1-1.7 3.1-2.1 4.5-.4 1.4-2.2 4.7-3.9 7.5-5.2 8.2-18.7 36.3-23.3 48.5-3.9 10.2-4.5 13.6-5 27.7-.4 10.4-.1 14.5 1.3 19.5.9 3.5 2.1 9.4 2.6 13.2 1.2 9.1 4.4 16.6 7 16.6 1.7 0 1.9-.4 1.3-2.3-2-6.1-1.7-9.1 1.7-14.6 1.8-2.9 4.7-6.1 6.3-7 1.7-.9 3.2-1.7 3.5-1.9.2-.2-.2-.7-1-1.2-1.9-1.2-4.7-.4-8.8 2.7-1.8 1.4-4 2.2-4.7 1.9-1.8-.6-1.8-1-1.6-20.1.2-14.1.4-15.6 3.7-26 3.1-9.7 10.6-25.6 25.5-54.1 13.7-26.2 25.4-63.6 20.8-66.5-2.5-1.6-3.9-.9-5.3 2.6z"/></svg>