
<svg xmlns="http://www.w3.org/2000/svg" fill="none" viewBox="78.93 89.45 360.16 530.39"><path fill-rule="evenodd" clip-rule="evenodd" d="M357.438 387.283c-3.914-1.396-7.687-3.008-11.124-5.38-9.908-7.378-16.368-18.481-22.472-29.001-8.599-15.299-14.725-31.603-18.959-48.61-1.82-7.307-2.438-15.779-6.571-22.257-9.372-13.565-36.851-11.808-51.443-9.427-9.771 1.73-11.791 12.669-14.01 20.764-1.848 6.726-3.057 13.528-4.073 20.421-2.416 1.589-5.143 2.879-7.743 4.004-28.331 8.69-33.31 24.802-44.131 49.69-18.277 36.174-67.871 50.338-75.362 93.149-4.8266 28.264 8.899 54.854 23.05 78.35 13.178 25.665 31.577 37.983 60.877 31.92 27.482-6.167 53.894-16.484 80.892-24.456 13.076-3.216 26.132-11.582 39.887-8.665 28.343 6.368 57.464 9.362 86.51 8.535 40.782 1.65 40.776-37.507 36.59-67.831-2.932-47.19-26.725-77.491-71.918-91.206Z" fill="#fff"/><path fill-rule="evenodd" clip-rule="evenodd" d="M360.164 455.567c3.408 2.254 6.274 5.672 8.575 9.27-9.605-1-19.194-2.152-28.762-3.465 1.253-.8 2.517-1.584 3.81-2.323 4.717-2.659 11.109-6.967 16.377-3.482Zm-159.589 28.405c-1.76-.69-2.441-3.374-3.127-4.913-2.151-4.826-4.114-9.734-6.156-14.607 7.754-2.211 15.295-4.664 23.327-5.843 8.637-1.266 17.402-1.572 26.118-1.288 17.656.576 35.148 3.463 52.507 6.558 17.338 3.092 34.676 6.063 52.135 8.394 17.106 2.283 34.266 3.955 51.458 5.422 3.34.285 8.909 1.487 11.596-1.143 2.126-2.082 2.195-5.923-.466-7.616-1.658-1.056-4.06-1.071-5.953-1.315-2.386-.307-4.78-.511-7.18-.67-.977-.065-1.955-.124-2.933-.184 7.85-2.961 16.049-4.575 24.559-4.125.481 2.925 2.65 5.934 3.837 8.346 2.072 4.211 3.687 8.474 4.748 13.053 2.216 9.571 2.313 19.505 1.687 29.267-.575 8.139-1.811 17.143-8.193 22.907-4.832 4.365-11.649 5.981-17.974 6.489-7.351.591-14.816-.04-22.105-1.026-10.224-1.383-20.496-3.211-30.518-5.662-19.413-4.747-38.02-12.301-55.187-22.541-8.372-4.994-16.36-10.612-24.847-15.415-8.648-4.896-17.85-8.694-27.512-11.052-10.813-2.639-22.117-3.765-33.23-3.114-1.929.112-4.715.812-6.591.078Zm-12.531-4.901c1.137 3.689 2.006 7.901 4.431 11 2.403 3.072 6.027 4.156 9.781 4.429 4.527.329 9.107.118 13.644.287 9.305.345 18.482 1.857 27.377 4.631 8.29 2.585 15.985 6.616 23.397 11.089 6.855 4.137 13.508 8.577 20.365 12.701-1.825.837-3.63 1.742-5.444 2.531-3.805 1.653-7.633 3.247-11.478 4.802-7.583 3.066-15.199 6.058-22.892 8.837a543.4358 543.4358 0 0 1-47.237 14.671c-7.611 1.99-15.33 4.313-23.237 4.644-7.011.293-13.505-1.69-19.16-5.86-11.728-8.65-21.059-21.135-28.602-33.45-4.482-7.316-8.392-15.004-11.627-22.952-1.636-4.02-3.12-8.101-4.455-12.231-.627-1.938-1.221-3.888-1.783-5.847-.248-.861-.485-1.725-.72-2.59 11.993-3.661 24.129-6.966 36.549-8.8 6.631-.98 13.351-1.476 20.055-1.404 3.327.036 6.653.215 9.963.559 1.782.185 3.556.423 5.323.718.73.121 1.48.301 2.233.433 1.15 3.941 2.309 7.879 3.517 11.802Zm247.909-15.67c.647-1.308.919-2.594 1.151-4.018.177-1.086.645-2.615.235-4.026-.46-1.579-1.712-2.992-2.612-4.339-.993-1.489-1.985-2.979-2.975-4.469-1.982-2.981-3.959-5.965-5.933-8.95-8.062-12.193-16.069-24.42-24.088-36.64-7.117-10.844-14.114-21.786-21.447-32.485-6.271-9.148-13.106-18.146-21.689-25.261-10.853-8.996-23.776-13.234-37.274-16.54-1.474-1.531-3.444-2.367-5.548-2.197-2.974-3.374-5.338-5.731-6.409-10.022-.513-2.055-.352-7.829-2.353-9.046-2.377-1.444-3.618.468-4.273 2.623-2.193 7.209.324 16.903 6.115 24.124-2.44 8.437-5.675 20.427-11.446 27.186-6.18 7.237-14.727 9.489-23.949 9.638-17.585.283-35.153-6.255-48.566-17.587-4.077-3.444-7.864-7.29-11.29-11.381-2.569-3.069-5.609-7.806-7.619-11.386 0-1.395-1.647-2.854 15.117-3.981 16.763-1.128 18.035-24.09 18.407-27.215.303-2.537 1.591-6.476-.196-8.545-.759-.879-2.316-1.021-3.277-.424-1.814 1.127-2.41 4.008-2.98 5.964-.799 2.741-3.41 19.752-8.357 21.721-2.316.922-4.973.94-7.423 1.11-3.025.211-6.057.366-9.071.718-1.111.13-2.324.49-3.42.5-.714.007-1.45-.34-2.139-.583-2.328-.823-4.653-.206-7.051.117-21.2 2.85-43.028 9.355-61.11 21.059-15.938 10.316-27.167 25.153-34.5761 42.499-7.5598 17.703-11.8929 36.846-15.5242 55.691-1.2165 6.315-2.2788 12.658-3.1915 19.023-.882 6.151-1.9854 12.439-2.2495 18.652-.1046 2.458.4827 4.742 1.3864 6.987 1.0177 2.527 3.4231 3.524 5.7303 4.704 5.0646 2.591 10.4073 4.601 15.9116 6.025 3.363 6.12 6.193 12.478 8.467 19.078-.843 1.672-.861 4.17-1.023 5.795-.403 4.048-.575 8.117-.611 12.183-.073 8.15.417 16.291.801 24.428.39 8.253 1.684 40.816 1.895 44.792.164 3.089-.057 7.41 1.57 10.152 2.5 4.216 8.669 4.074 11.526.656 70.998 15.269 204.453 10.67 258.202 2.987 6.993-.999 4.797.11 6.576-1.658 1.335-1.327 2.47-3.6 2.839-5.427.494-2.438-.302-4.645-1.698-6.618-1.467-2.074-1.734-5.433-2.279-7.899-1.289-5.831-1.929-31.437-2.531-34.274-.188-.884-.369-1.819-.588-2.754 9.859.934 20.132.934 29.512-2.364 5.318-1.871 10.279-4.81 14.097-9.005 4.624-5.08 7.196-11.476 8.519-18.151 1.707-8.608 2.069-17.524 1.734-26.274-.466-10.342-2.181-20.829-6.437-30.324 1.401-1.301 2.574-2.871 3.412-4.569Z" fill="#000"/><path fill-rule="evenodd" clip-rule="evenodd" d="M201.635 135.17c2.338-2.509 5.327-4.379 8.595-4.976-2.987 1.493-5.907 3.049-8.595 4.976Zm-4.578 21.634c-.413-1.912-.691-3.842-.778-5.773.522.795 1.356 1.326 2.293 1.6-.605 1.355-1.12 2.752-1.515 4.173Zm156.401 29.981c-2.698-11.235-15.285-32.844-18.26-37.003-3.23-10.299 14.389-18.557 4.807-26.611-4.339-3.633-10.072-4.919-15.451-6.208-37.241-8.947-77.253-4.434-111.793 12.018-5.254-1.106-10.727 1.056-14.548 4.852-17.949 18.048 6.512 50.611 11.861 70.957 9.177 22.687-9.727 26.503-7.7 45.698 1.576 9.916 11.616 12.537 20.088 14.036 1.358.318 3.174.366 3.612 1.802 1.373 8.382 6.079 16.37 12.397 21.791-.552 1.638-.131 3.626 1.818 5.064 17.653 13.124 39.911 19.691 61.929 18.511 26.239-1.407 39.808-16.452 43.082-20.326 18.104-24.459 15.941-56.729 12.248-85.878-2.573-20.305.689 1.198-4.09-18.703Z" fill="#fff"/><path fill-rule="evenodd" clip-rule="evenodd" d="M272.552 93.3022c.825-2.579 3.159-4.13 5.832-3.8099 2.366.2795 4.899 2.6286 4.611 5.2211-.055.5005-.127.9694-.212 1.4113l.011.0039.011.0006-.058.1713c-.176.8251-.419 1.5645-.78 2.2634-.46 1.3391-.901 2.6831-1.339 4.0311.631-.027 1.276.009 1.929.13.676-1.731 1.357-3.4577 2.033-5.1936.726-1.8531 1.235-4.2337 2.668-5.6675 1.835-1.8305 5.016-2.2093 7.252-.9017 2.362 1.3796 3.204 3.8324 2.691 6.461-.262 1.3408-1.157 2.2739-2.265 2.8598l-.12.062-.851 2.02c.261-.113.531-.217.824-.302.46-.136.911-.221 1.352-.257 1.217-2.2051 2.556-4.3468 3.94-6.4478 1.59-2.4167 4.7-3.4447 7.31-1.9162 2.334 1.3661 3.587 4.9551 1.915 7.313-1.271 1.79-2.474 3.616-3.659 5.46.202.036.405.081.599.14.09-.122.185-.243.284-.365 1.294-1.605 2.799-2.809 4.345-4.144 1.446-1.253 2.114-3.2235 4.015-4.1748 2.394-1.1949 5.278-.6222 6.702 1.7584 3.056 5.0994-2.073 8.8234-5.354 11.9124 2.853-1.781 5.823-3.409 8.87-4.816 1.712-.789 3.452-1.551 5.219-2.209 2.618-.974 4.737-.662 6.887 1.15.959.811 1.437 2.584.996 3.765-.857 2.263-2.209 3.638-4.58 4.292-1.667.46-3.375.771-5.043 1.253-2.794.803-5.507 1.781-8.139 3.003.189.117.369.244.536.388 1.965-.636 3.966-1.186 5.976-1.655 3.334-.782 6.727-1.31 10.135-1.641l1.132-.105c4.086-.392 8.999-1.116 11.507 2.797.825 1.289.915 3.417 0 4.693-1.749 2.453-3.489 2.94-6.382 2.985 2.848.302 5.692.676 8.523 1.114 1.951.297 3.901.635 5.844 1.009l.97.19c2.366.474 5.007.749 7.04 2.119 4.435 2.994 2.353 8.824-2.56 9.446-2.375.298-5.012-.708-7.342-1.177-2.262-.455-4.534-.856-6.814-1.208-1.181-.185-2.362-.347-3.547-.496 2.411.347 4.804.839 7.134 1.533l.648.195c4.504 1.374 10.585 3.561 11.99 8.376.852 2.926-1.478 5.478-4.3 5.649-2.623.158-4.809-1.406-7.035-2.561-1.623-.838-3.272-1.465-5.021-2.001-1.807-.555-3.651-1.015-5.507-1.389 1.569.865 3.097 1.815 4.564 2.879l.674.498c3.9 2.907 9.845 7.406 8.472 12.854-.433 1.718-2.348 3.359-4.187 3.184-4.787-.447-7.428-5.546-11.038-8.278-.942-.713-1.974-1.416-3.056-2.102 5.472 6.529 9.826 14.077 13.138 21.872 7.281 17.151 9.514 33.033 9.568 51.474l.001.571c.009 10.171-.221 20.528-1.213 30.655-.919 9.355-2.605 18.589-6.846 27.062-7.107 14.206-20.957 25.271-36.231 29.482-16.996 4.689-35.993 1.023-49.915-9.798-3.552-2.759 1.158-8.751 4.786-6.204 14.49 10.167 33.23 13.387 49.861 6.506 13.192-5.455 23.815-17.191 28.317-30.704 2.866-8.597 3.7-17.763 4.723-26.722l.068-.597c1.082-9.369 1.708-18.801 1.699-28.233-.013-17.517-2.528-31.936-10.231-47.825-3.623-7.484-8.324-14.405-13.94-20.478-1.703.347-3.515-.14-5.237-.325-.879-.095-1.757-.185-2.636-.266.897.581 1.778 1.185 2.643 1.803l1.136.818c3.552 2.545 8.059 5.444 7.146 10.364-.248 1.33-1.573 2.552-2.858 2.854-4.656 1.109-7.856-3.417-11.001-6.105-2.736-2.335-5.598-4.427-8.514-6.524-.663-.473-1.33-.947-2.001-1.415.631.735 1.244 1.483 1.843 2.237l.885 1.122c2.679 3.353 6.539 7.71 4.154 12.056-.676 1.226-2.118 2.042-3.515 2.015-4.805-.099-6.716-5.554-8.969-8.999-1.938-2.953-4.043-5.735-6.22-8.517-.599-.762-1.203-1.524-1.816-2.286a188.7637 188.7637 0 0 0-30.026 3.99c-6.787 1.466-13.462 3.364-20.087 5.442l-.551.175c-3.585 1.155-7.28 2.633-9.865 5.168-.369 1.746-.086 3.588.267 5.332l.275 1.335c1.134 5.582 1.906 11.061 1.328 16.792-.599 5.911-2.379 11.227-4.552 16.718-1.027 2.589-2.091 2.12-2.456 4.897-.28 2.115-.107 4.299.084 6.433l.16 1.808c.401 4.737.602 9.902-2.502 13.811-.482.6-1.514.361-1.857-.239a7.6566 7.6566 0 0 0-.437-.69c-1.496-2.168-3.79-3.404-6.413-3.882-.334-.058-.203-.505.076-.541 2.218-.261 4.318.293 6.103 1.439-.847-2.928-7.399-1.504-9.553-.935l-.074.019c-2.686.722-5.228 1.894-7.468 3.553-4.507 3.337-7.112 8.54-6.982 14.144.131 5.51 2.975 10.6 7.861 13.238 2.357 1.271 5.038 1.884 7.706 1.857 2.786-.027 5.265-1.248 8.054-1.077 1.614.099 2.849 1.83 1.916 3.341-.622 1.01-1.433 1.803-2.371 2.412 2.285 5.271 5.201 10.298 8.564 14.937 1.861 2.575 3.97 4.951 6.291 7.12 1.812 1.695 5.738 3.656 5.517 6.483-.077 1.019-.604 1.642-1.533 2.02-2.886 1.181-6.396-2.884-8.327-4.844l-.155-.156c-2.406-2.399-4.601-5.05-6.512-7.863-3.39-4.996-5.494-10.627-6.364-16.543-4.629 1.393-10.758.086-14.535-1.623-11.872-5.365-15.752-21.358-8.536-32.007 1.397-2.061 3.146-3.824 5.138-5.249-.438-.239-.848-.545-1.213-.933-2.019-2.146-3.447-4.946-4.864-7.527l-.17-.309a124.8231 124.8231 0 0 1-3.557-6.924l-.414-.881c-2.483-5.343-4.66-7.678-6.431-13.296-1.704-5.42-3.047-10.943-3.917-16.561l-.231-1.487c-.503-3.259-.979-6.745-.612-10.055-2.528.825-5.07 1.335-7.571.095-1.65-.816-2.56-3.197-1.997-4.906.41-1.258 1.095-2.245 1.965-3.021-.518-.261-1.005-.595-1.433-.965l-.374-.324c-1.514-1.317-1.623-3.819-.703-5.469.09-.158.18-.32.266-.478.874-1.565 2.681-2.588 4.466-2.561.289.004.577.004.87 0-.834-.185-1.65-.469-2.425-.947-3.497-2.151-3.056-7.98 1.177-9.008 1.775-.429 3.736-.253 5.692.207-.072-.041-.144-.081-.216-.126-1.479-.907-2.718-2.679-2.578-4.496.153-2.01.802-3.444 2.578-4.499 1.541-.911 3.722-.997 5.255 0 1.329.87 2.632 1.83 3.885 2.863-1.258-1.547-2.348-3.228-2.79-5.014-.546-2.223.365-4.644 2.366-5.816 1.595-.934 3.281-.83 4.786-.108-.081-1.168.203-2.358.978-3.414 1.587-2.163 4.471-3.408 6.982-1.83.329.207.77.564 1.199 1.001-.834-2.656-.082-5.442 2.762-6.642 1.736-.734 4.084-.365 5.589.902-.955-5.171 6.675-8.972 9.64-3.629.673 1.21 1.339 2.485 1.935 3.788l.22.491.022-.01-.151-.358-.155-.358c-.825-1.917-1.875-3.909-2.164-5.988-.423-3.075.947-5.992 4.291-6.443 1.726-.234 3.646.55 4.805 1.921-.627-4.7705 4.7-8.2377 8.536-4.6758 1.816 1.6858 2.785 4.1528 3.939 6.3168.653 1.222 1.32 2.439 1.974 3.666.167-.199.347-.397.536-.591-.969-2.904-1.721-5.88-2.357-8.873-.604-2.8228.807-5.7535 3.718-6.5511 2.646-.7309 5.959.9018 6.549 3.7197.415 1.9834.906 3.9454 1.447 5.8974.369-.091.734-.154 1.095-.199.03-.366.064-.735.102-1.102l.142-1.304c.315-2.9802.633-6.382 2.19-8.9152 2.654-4.3284 9.46-2.5339 9.532 2.5835.041 2.6466-1.037 5.2707-1.411 7.8907-.162 1.14-.257 2.295-.311 3.449.726-3.833 1.722-7.6155 2.876-11.3397.135-.4464.279-.8927.419-1.3391ZM213.835 241.09c5.972-.924 11.43 2.407 14.968 7.074.644.852.22 2.056-.361 2.773-.419.527-.982.591-1.618.672-.73.094-1.654-.496-1.974-1.132-2.276-4.545-6.337-7.417-11.015-9.184-.086-.032-.113-.185 0-.203Zm8.278-81.43.181-.194c1.208-1.254-.701-3.169-1.912-1.913-1.275 1.323-2.122 2.93-2.937 4.558-.777 1.553 1.555 2.925 2.335 1.366l.355-.708c.557-1.102 1.151-2.19 1.978-3.109Zm-16.77-2.574c1.712-.288.986-2.896-.719-2.608-2.21.373-4.41.796-6.62 1.169-1.712.288-.986 2.896.719 2.609 2.209-.373 4.41-.797 6.62-1.17Zm102.023-17.801c-1.654-.552-2.364 2.06-.719 2.609 2.274.759 4.529 1.537 6.686 2.591 1.558.761 2.931-1.572 1.365-2.336-2.368-1.157-4.836-2.03-7.332-2.864Zm-102.413-3.506c-1.616-.646-2.317 1.969-.719 2.609l5.841 2.337c1.616.647 2.318-1.968.719-2.608l-5.841-2.338Zm122.809-6.351-.213-.135c-1.465-.949-2.822 1.392-1.365 2.336.855.554 1.894.93 2.678 1.591l.163.146c1.265 1.194 3.181-.715 1.913-1.914-.928-.876-2.103-1.364-3.176-2.024Z" fill="#000"/><path fill-rule="evenodd" clip-rule="evenodd" d="M316.413 273.226c-3.32.962-6.884 1.048-10.268.055-3.07-.901-6.222-2.884-8.481-5.507-2.007-2.331-3.306-5.163-3.255-8.187.005-.345.129-.633.319-.857.204-.241.49-.406.796-.478.314-.074.647-.047.93.081.256.117.476.315.613.604.347.456.693.905 1.04 1.342 2.792 3.448 5.496 6.024 9.693 6.948 2.278.501 4.553.279 6.64-.486 2.234-.819 4.254-2.259 5.836-4.102.716-.833 1.56-1.173 2.386-1.178.935-.007 1.86.428 2.557 1.123.685.683 1.143 1.612 1.185 2.583.036.852-.242 1.742-.981 2.537-2.436 2.616-5.594 4.533-9.01 5.522Zm-.102-43.178c3.403 2.069 8.589 6.893 4.928 12.023-4.31 4.522-10.515-.663-13.573-3.008-2.835-1.818-6.021 2.857-3.39 4.979 22.095 16.36 31.062-13.453 13.756-16.427-1.905-.327-2.613 1.793-1.721 2.433Zm-31.838-9.104c-1.094-.699-2.38-.94-3.806-.291-1.115.507-3.069 2.197-4.43 4.418-.93 1.52-1.59 3.302-1.453 5.159.032.431-.127.749-.379.984-.198.186-.485.322-.822.365-.285.036-.605.004-.866-.078-.495-.154-.757-.475-.855-.737-.953-2.53-.542-5.353.525-7.9 1.441-3.437 4.057-6.316 5.771-7.244 2.933-1.589 6.393-1.662 9.33-.043 2.5 1.378 4.064 3.602 5.619 5.869.33.482.658.96.997 1.43.68.942.747 1.876.484 2.677-.291.888-1.035 1.637-1.964 2.028-.859.363-1.856.414-2.739.041-.745-.314-1.429-.927-1.862-1.967-.729-1.751-1.943-3.683-3.55-4.711Zm55.557 3.897c-.749.39-1.336.508-2.167.259-.459-.138-.913-.403-1.269-.759-.352-.352-.607-.79-.705-1.277-.244-1.2-.9-2.323-1.836-3.055-.799-.626-1.809-.958-2.928-.771-1.208.202-2.359.977-3.152 1.89-.265.306-.473.653-.681.998-.391.645-.771 1.244-1.309 1.718-.205.18-.512.305-.81.305-.121 0-.244-.02-.361-.056-1.203-1.207-1.434-2.123-1.395-3.031.04-.952.416-1.917 1.023-2.816 1.423-2.111 4.125-3.841 5.948-4.233 2.497-.537 4.977.108 6.965 1.503 2.046 1.435 3.562 3.663 4.035 6.174.114.605.065 1.258-.165 1.824-.225.553-.617 1.027-1.193 1.327Zm-50.049-26.397c-1.499 1.46-3.273 1.686-5.067 1.887-.997.113-1.793.204-2.576.381-2.153.486-4.281 1.218-6.222 2.272-2.029 1.102-4.241 2.431-5.832 4.134-.378.405-.735.83-1.092 1.256-.326.388-.64.762-.97 1.123-.38.414-.74.848-1.099 1.281-.222.366-.266.456-.31.549-.067.141-.146.298-.235.467-.122.231-.265.484-.415.713-.25.419-.384.535-.5.587-.192.085-.374.127-.55.104-.166-.021-.322-.1-.476-.231-.77-.65-.997-1.717-.973-2.849.035-1.719.669-3.622 1.253-4.791 1.359-2.718 3.243-5.544 5.508-7.572 2.586-2.316 5.414-4.069 8.663-5.277 2.019-.75 4.356-1.44 6.556-1.353 1.583.063 3.094.534 4.342 1.709.767.722 1.135 1.748 1.135 2.773 0 1.046-.383 2.099-1.14 2.837Zm53.097 13.371a.8282.8282 0 0 1-.374.329.8618.8618 0 0 1-.491.059.8732.8732 0 0 1-.444-.215.8316.8316 0 0 1-.249-.431c-.995-4.37-2.927-7.622-7.05-9.718-2.029-1.032-4.361-1.687-6.569-2.21-.642-.152-1.32-.25-2.003-.35-2.139-.312-4.295-.67-5.69-2.4-.84-1.042-1.193-2.375-.994-3.593.188-1.148.859-2.2 2.077-2.831 3.035-1.569 6.806-.029 9.87 1.283.227.097.45.192.668.284 2.997 1.265 5.73 2.935 7.977 5.323 1.782 1.895 3.434 4.695 4.099 7.576.553 2.397.423 4.844-.827 6.894Z" fill="#000"/></svg>