<svg xmlns="http://www.w3.org/2000/svg" fill="none" viewBox="60.9 110.43 366.44 510.15"><path fill-rule="evenodd" clip-rule="evenodd" d="M416.397 611.596C425.108 611.175 421.604 595.937 420.979 590.341C414.083 569.903 415.704 547.603 412.992 526.18C411.302 506.181 409.131 486.244 407.305 466.261C403.718 425.696 377.961 343.117 348.568 329.836C344.866 313.588 329.573 298.421 310.224 298.421C297.027 282.799 281.143 271.804 260.769 274.024C252.35 274.407 244.185 283.337 236.118 285.062C231.601 285.685 191.515 284.081 183.485 288.851C177.892 291.723 172.842 297.031 174.487 303.788C177.111 311.974 168.956 303.116 151.945 311.854C117.257 332.689 137.985 360.562 138.904 361.425C117.257 391.546 98.337 415.982 89.5828 452.798C83.9093 480.131 84.548 508.348 79.7943 535.821C78.1159 545.347 75.541 554.547 72.7547 563.798C69.735 575.905 68.2666 606.08 66.6022 606.349C63.5702 607.102 68.3544 613.328 71.5671 613.333C160.638 628.109 251.112 613.945 340.662 611.631C365.899 610.754 391.162 610.551 416.397 611.596Z" fill="white"></path><path fill-rule="evenodd" clip-rule="evenodd" d="M281.397 364.084C281.439 363.676 281.988 363.677 282.031 364.084L282.66 370.155C283.425 377.57 284.161 384.971 284.695 392.42C285.361 401.709 285.806 410.997 286.021 420.307C286.769 452.733 286.918 485.175 286.981 517.609C291.367 517.305 295.753 517.013 300.142 516.73C303.119 516.537 306.097 516.353 309.075 516.171L316.668 515.711V515.711L319.794 515.519C321.906 515.388 324.306 514.856 325.783 516.728C326.375 517.477 326.671 518.451 326.12 519.34C324.849 521.391 322.896 521.32 320.687 521.408C318.603 521.493 316.519 521.575 314.435 521.655C309.968 521.829 305.503 521.993 301.035 522.118C296.347 522.25 291.661 522.356 286.975 522.436C286.927 536.128 286.361 549.804 285.748 563.481L285.471 569.636C284.722 586.28 283.915 602.939 282.77 619.561C282.676 620.922 280.751 620.919 280.657 619.561C279.368 600.842 278.517 582.083 277.673 563.338C277.061 549.748 276.705 536.153 276.535 522.557C275.916 522.561 275.296 522.57 274.677 522.572C257.087 522.649 239.502 522.726 221.912 522.561C221.941 522.595 221.97 522.63 221.99 522.676C223.262 525.681 223.384 529.516 223.353 532.741C223.317 536.44 222.819 540.094 221.967 543.691C218.915 556.577 211.043 568.119 202.078 577.661L201.785 577.971C199.67 580.206 197.244 582.451 195.945 585.298C194.619 588.204 194.159 591.604 193.504 594.727L193.428 595.086L190.869 606.907C190.056 610.662 189.825 616.138 186.853 618.847C184.08 621.375 180.407 620.055 179.102 616.8C178.083 614.26 179.098 611.471 179.701 608.932L184.43 589.054C185.207 585.812 186.056 582.549 187.733 579.637C189.45 576.655 191.968 574.492 194.538 572.28C199.403 568.091 203.87 563.295 207.647 558.102C211.423 552.911 214.65 547.19 216.913 541.173C218.046 538.161 218.975 535.032 219.615 531.878C220.224 528.884 220.219 525.784 220.87 522.822C220.915 522.618 221.087 522.478 221.285 522.415C221.238 522.283 221.31 522.105 221.495 522.093L235.88 521.169C248.668 520.344 261.455 519.498 274.23 518.531L276.488 518.368V518.368C276.313 500.227 276.461 482.083 276.789 463.936C277.089 447.295 277.096 430.649 277.59 414.01C277.837 405.752 278.367 397.513 278.957 389.272C279.561 380.844 280.528 372.487 281.397 364.084ZM146.323 460.574C146.17 459.65 147.332 459.077 147.868 459.923C153.994 469.579 156.947 480.067 158.192 491.367C159.292 501.34 158.968 511.456 158.42 521.455C157.836 532.12 157.155 542.782 156.465 553.441L155.407 569.787V569.787L152.75 610.764C152.56 613.695 151.894 616.36 149.371 617.723C149.051 617.99 148.718 618.229 148.33 618.437C146.967 619.165 145.159 618.797 144.37 617.398L144.686 617.606C144.962 617.779 144.652 617.537 143.759 616.881L143 615.899V615.899C142.449 615.07 142.097 614.256 141.955 613.271C141.735 611.741 142.02 610.062 142.12 608.524L143.862 581.654V581.654C145.216 560.765 146.798 539.882 147.99 518.982C148.545 509.241 148.934 499.491 148.671 489.733C148.409 480.029 147.914 470.161 146.323 460.574ZM199.315 280.7L199.655 280.643C211.822 278.621 225.052 279 236.171 284.865C236.263 284.913 236.221 285.066 236.118 285.062L232.539 284.919C221.209 284.475 209.913 284.212 198.773 286.875L197.632 287.149C193.62 288.128 189.43 289.326 186.208 291.976C183.128 294.509 181.594 298.417 180.119 302.014L179.922 302.489C178.426 306.042 176.532 309.412 173.252 311.633C169.004 314.511 163.895 314.158 159.025 314.549C150.449 315.238 143.437 321.454 139.948 329.06C137.836 333.666 136.935 338.83 136.756 343.867C136.665 346.431 136.652 349.095 136.994 351.642C137.103 352.457 138.109 355.424 138.623 355.353C139.764 355.195 140.807 355.79 141.162 356.702C143.98 353.979 146.879 351.335 149.871 348.786C157.33 342.434 165.364 336.676 173.825 331.729C180.282 327.952 187.093 324.211 194.146 321.383C193.587 321.371 193.036 321.482 192.503 321.759C192.269 321.881 192.037 321.588 192.222 321.394C194.443 319.057 197.104 318.724 199.787 319.348C200.359 319.165 200.932 318.989 201.507 318.822C201.793 318.739 201.936 319.133 201.702 319.285L201.043 319.706V319.706C203.97 320.687 206.843 322.614 209.118 324.135C215.652 328.502 221.404 333.841 227.234 339.08L228.294 340.03C233.426 344.613 238.689 349.066 244.52 352.742C247.572 354.667 250.778 356.447 254.14 357.77C257.025 358.907 261.72 359.622 263.071 362.671C264.272 364.129 263.77 365.991 262.364 366.972C259.992 369.583 255.248 367.897 252.422 366.809C249.015 365.499 245.715 363.923 242.567 362.076C236.456 358.488 230.821 354.026 225.572 349.281C220.09 344.325 214.919 339.059 209.587 333.947C207.277 331.732 205.02 329.465 202.707 327.254L201.545 326.153C200.364 325.045 198.681 323.319 196.882 322.274C193.493 324.296 190.052 326.234 186.694 328.308C182.006 331.203 177.456 334.306 172.977 337.512C164.353 343.683 156.181 350.595 148.594 358.003C134.68 371.59 122.825 387.105 112.469 403.533L111.683 404.785C105.798 414.188 100.233 423.894 96.2868 434.284C91.9451 445.717 89.8336 457.74 88.6865 469.877C87.548 481.926 87.164 494.036 85.8917 506.074C84.5869 518.421 82.016 530.495 79.0918 542.546L78.3944 545.403C75.7485 556.196 73.0175 566.989 71.6574 578.037C70.9313 583.938 70.4945 589.92 70.5932 595.869C70.6924 601.853 71.6326 607.704 72.3911 613.624C72.6818 615.893 70.4499 617.786 68.4528 618.086C66.156 618.431 64.1828 616.966 63.4689 614.832C61.2433 608.18 60.839 600.827 60.9089 593.846C60.9792 586.757 61.8837 579.716 63.1565 572.75C65.6598 559.048 69.5228 545.63 72.7544 532.092C75.6024 520.16 77.5139 508.207 78.5442 495.983C79.6137 483.3 80.2542 470.576 82.2053 457.985C84.1312 445.555 87.7549 433.682 93.2197 422.348C98.1956 412.029 104.398 402.315 110.901 392.901C118.798 381.468 127.471 370.589 137.166 360.677C136.295 360.639 135.401 360.358 134.58 359.846C132.067 358.279 130.897 355.213 130.538 352.414C129.696 345.866 129.899 339.03 131.583 332.628C134.299 322.3 141.349 313.124 151.567 309.401C154.197 308.443 156.992 308.093 159.78 308.024C162.424 307.958 165.313 308.303 167.865 307.465C171.927 306.13 173.668 301.345 175.193 297.719L175.263 297.552C177.219 292.93 179.566 288.969 183.802 286.084C188.321 283.004 193.983 281.604 199.315 280.7V280.7ZM314.921 298.977C318.577 297.708 323.148 298.859 326.723 299.967C330.707 301.202 334.388 303.477 337.543 306.178C340.873 309.027 343.624 312.545 345.568 316.474L345.754 316.853C347.53 320.498 349.552 325.502 348.657 329.507C348.631 329.62 348.602 329.73 348.568 329.836C355.822 333.407 362.522 337.88 368.356 343.55C375.149 350.151 380.901 357.663 385.768 365.778C405.101 398.01 408.504 436.721 410.787 473.479L411.356 482.799C412.596 502.925 414.047 523.002 417.816 542.85L418.091 544.283C422.12 565.064 427.887 586.003 427.303 607.321C427.127 613.708 417.689 613.665 417.415 607.321C416.385 583.443 410.813 560.389 407.04 536.885C400.402 495.533 403.728 452.901 394.322 411.963C390.63 395.897 384.912 380.313 376.747 365.972C372.713 358.888 368.098 352.043 362.693 345.931C358.042 340.672 353.208 335.611 347.773 331.19C346.036 332.93 342.566 332.043 341.659 329.507C341.036 327.764 341.218 325.726 340.818 323.9C340.447 322.206 339.935 320.526 339.254 318.93C337.895 315.75 335.902 312.696 333.6 310.122C331.113 307.34 328.255 305.029 325.057 303.12C321.838 301.199 318.316 300.625 314.921 299.221C314.806 299.174 314.795 299.02 314.921 298.977ZM329.125 519.977C329.131 519.809 329.329 519.73 329.45 519.842C330.732 521.022 331.507 522.715 332.45 524.166C333.538 525.839 334.681 527.478 335.879 529.075C338.279 532.273 340.951 535.288 343.645 538.242C346.15 540.988 348.82 543.619 351.59 546.099C354.59 548.787 357.953 551.185 360.679 554.161C366.368 560.37 367.287 568.893 368.488 576.895L368.619 577.761C369.351 582.51 370.007 587.271 370.598 592.04C370.886 594.36 371.172 596.681 371.407 599.007L371.478 599.744C371.687 602.02 371.744 604.33 370.436 606.319C369.037 608.447 365.855 609.193 363.964 607.152C360.714 603.647 361.323 597.42 360.9 592.91C360.551 589.181 360.155 585.457 359.711 581.738L359.485 579.879C358.963 575.648 358.538 571.333 357.57 567.176C356.717 563.515 355.092 560.752 352.424 558.099C349.737 555.428 346.945 552.934 344.465 550.057C341.834 547.005 339.461 543.733 337.323 540.318C335.494 537.397 334.028 534.219 332.685 531.044L332.462 530.515C331.164 527.419 329.024 523.388 329.125 519.977ZM376.05 386.986C376.078 386.554 376.716 386.547 376.726 386.986C376.806 390.7 376.884 394.414 376.961 398.129C377.581 428.059 377.199 458.061 380.202 487.889C381.618 501.953 384.225 515.81 387.243 529.609C388.787 536.67 390.407 543.714 391.946 550.776C393.446 557.659 395.055 564.575 396.245 571.521C397.414 578.348 398.461 585.228 398.931 592.143L398.989 593.045C399.191 596.395 400.157 601.322 398.313 604.291C396.314 607.507 392.488 607.565 390.347 604.494C388.336 601.612 388.836 596.484 388.481 593.045C388.12 589.542 387.738 586.035 387.305 582.54C386.459 575.721 385.344 568.918 384.185 562.146C381.77 548.043 378.268 534.117 375.684 520.037C373.034 505.609 371.151 491.078 371.072 476.388C370.993 461.573 372.561 446.787 373.353 432.004C374.157 416.991 375.071 401.989 376.05 386.986ZM234.671 293.891C235.475 291.185 238.311 289.493 241.077 290.253C243.612 290.95 245.705 294.027 244.714 296.66C243.633 299.533 241.742 301.983 240.149 304.594C238.677 307.007 236.529 308.907 235.03 311.277L236.682 313.059C237.509 313.947 238.338 314.831 239.176 315.699L242.058 318.685C244.303 321.005 246.562 323.313 248.884 325.553C255.713 332.14 262.651 338.512 270.299 344.153C272.04 345.437 273.794 346.714 275.598 347.909L276.271 348.355C277.508 349.165 278.889 349.962 280.384 349.824C284.016 349.491 287.298 345.633 289.795 343.231L289.925 343.106C296.111 337.22 301.839 330.784 306.847 323.864C307.959 322.327 309.036 320.763 310.084 319.181C307.663 316.352 308.241 310.831 308.108 307.401C308.014 304.989 308.006 302.577 307.993 300.163L307.987 299.676C307.957 298.114 307.887 296.615 308.901 295.33C308.96 295.255 309.082 295.258 309.157 295.297C310.546 296.025 310.973 297.243 311.566 298.61L311.628 298.752C312.349 300.392 313.039 302.047 313.738 303.697C314.47 305.424 315.14 307.177 315.82 308.925C316.136 309.738 316.438 310.554 316.733 311.375C316.913 311.899 317.099 312.421 317.291 312.942L317.336 312.982C317.588 313.196 317.802 313.422 317.986 313.656C318.761 314.043 319.377 314.75 319.666 315.787C320.295 318.046 318.993 319.888 317.833 321.68C313.118 328.964 307.744 335.906 301.77 342.202C298.803 345.33 295.682 348.318 292.432 351.152L291.864 351.644C288.945 354.153 285.776 356.529 281.877 357.116C277.315 357.803 273.602 355.533 270.109 352.92L269.761 352.657C266.45 350.151 263.205 347.556 260.062 344.842C253.654 339.309 247.557 333.367 242.146 326.849C236.883 320.509 231.68 313.419 228.436 305.79C228.238 305.326 228.758 304.839 229.166 305.227C230.75 306.736 232.275 308.327 233.782 309.938C233.824 307.566 233.386 305.175 233.629 302.788C233.926 299.888 233.841 296.683 234.671 293.891Z" fill="black"></path><path fill-rule="evenodd" clip-rule="evenodd" d="M350.435 218.164C349.465 209.638 350.721 191.818 350.805 190.735C351.337 183.89 348.13 156.862 342.068 159.352C331.899 151.301 318.355 149.524 305.69 148.674C279.384 146.91 251.399 150.96 231.085 168.666C221.04 177.861 211.26 191.234 212.046 205.158C202.919 218.357 190.051 236.463 201.423 251.893C205.289 256.823 211.433 258.659 216.289 262.392C226.056 270.272 232.184 281.579 242.044 289.411C268.167 312.888 312.524 317.792 338.19 291.089C358.037 271.75 354.828 242.819 351.337 218.164C348.99 201.589 352.328 234.798 350.435 218.164Z" fill="white"></path><path fill-rule="evenodd" clip-rule="evenodd" d="M270.549 112.519C277.584 111.099 284.808 110.215 291.993 110.481L292.547 110.503C297.953 110.719 304.799 111.197 309.515 114.341C309.786 114.068 310.222 113.929 310.618 114.117C316.222 116.793 322.386 118.727 328.287 120.649C334.16 122.561 340.254 123.824 346.41 124.333C348.726 124.524 350.708 127.026 349.242 129.269C348.893 129.804 348.553 130.344 348.214 130.885C348.78 130.826 349.347 130.765 349.913 130.708C351.775 130.52 353.636 132.508 353.526 134.322C353.457 135.463 353.334 136.59 353.152 137.704C353.861 137.689 354.567 137.796 355.248 138.084C358.699 139.541 358.458 143.651 358.2 146.779C357.842 151.119 356.219 155.715 353.206 158.963C355.456 161.301 357.049 164.092 357.999 167.406C358.688 169.827 359.071 172.405 358.882 174.925L358.822 175.679C358.588 178.414 358.122 181.441 356.155 183.408C355.146 184.422 353.902 184.792 352.716 184.675C353.433 190.976 353.893 197.314 354.325 203.629L354.528 206.647C355.494 221.242 356.219 235.933 356.029 250.552C355.853 264.214 353.154 277.475 344.775 288.568C337.144 298.669 326.188 306.116 313.794 308.947C307.114 310.475 300.295 310.583 293.535 309.609C290.257 309.136 286.959 308.41 283.848 307.265C280.405 305.994 277.931 304.123 275.615 301.32C274.519 299.99 275.046 297.159 277.228 297.425C280.528 297.825 283.54 298.308 286.704 299.284L287.157 299.427C290.307 300.436 293.571 301.189 296.865 301.509C303.612 302.163 310.463 301.505 316.926 299.458C327.45 296.123 336.514 288.69 342.323 279.35C349.219 268.28 349.999 255.713 349.899 242.984C349.792 229.016 349.338 215.04 348.597 201.086L348.47 198.761C348.078 191.58 347.7 184.395 347.367 177.21C347.263 174.957 347.105 172.685 346.821 170.436C344.221 168.912 341.891 166.811 340.372 164.22C337.32 165.482 334.111 166.392 331.159 167.118C324.32 168.8 317.219 169.209 310.258 168.155C308.381 168.931 306.466 169.613 304.521 170.2C303.996 170.433 303.47 170.662 302.945 170.886C298.257 172.892 293.503 174.591 288.554 175.835L287.339 176.139C284.734 176.781 281.906 177.413 279.135 177.611C278.679 177.787 278.188 177.936 277.651 178.067C275.128 178.68 272.509 178.874 269.922 178.657C267.402 178.445 265.581 175.899 266.97 173.514C267.984 171.774 269.007 170.039 270.039 168.308C266.447 169.804 262.738 171.049 258.997 172.103C255.22 173.167 251.389 174.064 247.553 174.889C245.503 175.326 243.443 175.714 241.397 176.151C239.932 176.462 237.683 176.624 236.488 177.589C235.168 178.648 234.794 181.118 234.293 182.642C233.635 184.621 233.018 186.608 232.455 188.619C231.333 192.63 230.413 196.701 229.701 200.812C228.989 204.927 228.511 209.083 228.245 213.252C227.98 217.417 228.096 221.609 227.669 225.756C227.438 227.956 225.077 229.087 223.333 227.55C223.128 227.37 222.922 227.187 222.718 227.003L222.413 226.725C220.921 225.373 219.474 223.94 218.28 222.326C218.064 222.028 217.857 221.717 217.663 221.402C217.631 221.402 217.604 221.393 217.573 221.37L217.242 221.121C213.597 218.408 207.507 214.87 203.953 219.378C202.82 220.814 202.24 222.643 201.759 224.407L200.914 227.564C200.368 229.625 199.854 231.698 199.553 233.806C198.873 238.53 199.215 243.975 202.465 247.762C203.763 249.276 205.553 250.358 207.549 250.642C208.662 250.795 209.762 250.606 210.866 250.466C211.989 250.326 213.07 250.552 214.193 250.444C215.977 250.268 216.757 252.404 216.09 253.748C215.729 254.469 215.305 255.091 214.824 255.618C215.211 255.952 215.581 256.312 215.937 256.691C216.991 257.029 217.937 257.755 218.645 258.715C219.218 259.49 219.515 260.333 219.565 261.221C219.628 261.442 219.682 261.667 219.732 261.897L220.699 263.467C220.911 263.811 221.123 264.151 221.336 264.485C223.797 268.361 226.528 271.642 229.922 274.735C233.19 277.71 236.736 280.373 239.806 283.565L240.168 283.944C243.029 286.96 246.046 290.61 244.926 294.996C244.638 296.123 243.064 296.934 242.037 296.172C238.733 293.72 237.07 289.835 234.267 286.86C231.382 283.795 228.186 281.041 225.293 277.984C222.557 275.1 220.398 271.832 218.772 268.235C218.122 268.951 217.176 269.461 215.865 269.659C213.611 269.997 211.51 268.676 210.528 266.725C209.897 267.004 209.253 267.257 208.603 267.455C205.187 268.501 203.038 264.701 204.327 261.893C205.016 260.387 205.877 259.08 206.945 257.98C203.605 257.52 200.207 255.794 198.012 253.639C192.505 248.226 191.747 240.09 192.987 232.855C193.645 229.019 194.78 225.139 196.255 221.537C196.511 220.91 196.786 220.279 197.088 219.657C196.921 219.653 196.75 219.581 196.642 219.441C195.646 218.08 194.434 216.966 193.694 215.443C193.013 214.046 192.257 212.63 191.72 211.174C190.616 208.195 190.075 204.832 189.715 201.681C188.971 195.231 189.259 188.822 190.247 182.412C191.927 171.495 195.987 161.047 201.969 151.88C201.643 151.709 201.331 151.502 201.04 151.258L200.896 151.133L200.663 150.922C198.956 149.377 199.103 146.482 200.663 144.917L201.155 144.423C201.779 143.804 202.317 143.313 203.324 142.638C203.473 142.539 203.625 142.445 203.779 142.357C203.251 141.383 203.068 140.243 203.436 138.986C204.716 134.607 211.016 134.762 215.01 136.672C219.428 132.728 224.328 129.305 229.638 126.532C242.285 119.933 256.585 115.331 270.549 112.519ZM205.174 227.866C207.536 227.095 210.673 228.713 212.795 229.687C215.486 230.922 217.776 232.747 219.993 234.676C221.097 235.641 221.295 237.219 221.021 238.566C220.993 238.702 220.967 238.841 220.935 238.981C220.642 240.419 219.037 241.55 217.618 241.51C214.647 241.429 213.233 238.864 211.551 236.691C211.353 237.043 211.105 237.367 210.798 237.611L210.591 237.773C209.893 238.304 209.124 238.729 208.202 238.688C207.549 238.657 206.923 238.49 206.345 238.188C204.903 237.426 204.268 235.56 204.66 234.041C204.903 233.085 205.462 232.337 206.192 231.819L205.92 231.632C205.338 231.227 204.807 230.8 204.393 230.169L204.299 230.02H204.335C203.885 229.245 204.178 228.19 205.174 227.866Z" fill="black"></path><path fill-rule="evenodd" clip-rule="evenodd" d="M316.413 273.226C313.093 274.188 309.529 274.274 306.145 273.281C303.075 272.38 299.923 270.397 297.664 267.774C295.657 265.443 294.358 262.611 294.409 259.587C294.414 259.242 294.538 258.954 294.728 258.73C294.932 258.489 295.218 258.324 295.524 258.252C295.838 258.178 296.171 258.205 296.454 258.333C296.71 258.45 296.93 258.648 297.067 258.937C297.414 259.393 297.76 259.842 298.107 260.279C300.899 263.727 303.603 266.303 307.8 267.227C310.078 267.728 312.353 267.506 314.44 266.741C316.674 265.922 318.694 264.482 320.276 262.639C320.992 261.806 321.836 261.466 322.662 261.461C323.597 261.454 324.522 261.889 325.219 262.584C325.904 263.267 326.362 264.196 326.404 265.167C326.44 266.019 326.162 266.909 325.423 267.704C322.987 270.32 319.829 272.237 316.413 273.226ZM316.311 230.048C319.714 232.117 324.9 236.941 321.239 242.071C316.929 246.593 310.724 241.408 307.666 239.063C304.831 237.245 301.645 241.92 304.276 244.042C326.371 260.402 335.338 230.589 318.032 227.615C316.127 227.288 315.419 229.408 316.311 230.048ZM284.473 220.944C283.379 220.245 282.093 220.004 280.667 220.653C279.552 221.16 277.598 222.85 276.237 225.071C275.307 226.591 274.647 228.373 274.784 230.23C274.816 230.661 274.657 230.979 274.405 231.214C274.207 231.4 273.92 231.536 273.583 231.579C273.298 231.615 272.978 231.583 272.717 231.501C272.222 231.347 271.96 231.026 271.862 230.764C270.909 228.234 271.32 225.411 272.387 222.864C273.828 219.427 276.444 216.548 278.158 215.62C281.091 214.031 284.551 213.958 287.488 215.577C289.988 216.955 291.552 219.179 293.107 221.446C293.437 221.928 293.765 222.406 294.104 222.876C294.784 223.818 294.851 224.752 294.588 225.553C294.297 226.441 293.553 227.19 292.624 227.581C291.765 227.944 290.768 227.995 289.885 227.622C289.14 227.308 288.456 226.695 288.023 225.655C287.294 223.904 286.08 221.972 284.473 220.944V220.944ZM340.03 224.841C339.281 225.231 338.694 225.349 337.863 225.1C337.404 224.962 336.95 224.697 336.594 224.341C336.242 223.989 335.987 223.551 335.889 223.064C335.645 221.864 334.989 220.741 334.053 220.009C333.254 219.383 332.244 219.051 331.125 219.238C329.917 219.44 328.766 220.215 327.973 221.128C327.708 221.434 327.5 221.781 327.292 222.126C326.901 222.771 326.521 223.37 325.983 223.844C325.778 224.024 325.471 224.149 325.173 224.149C325.052 224.149 324.929 224.129 324.812 224.093C323.609 222.886 323.378 221.97 323.417 221.062C323.457 220.11 323.833 219.145 324.44 218.246C325.863 216.135 328.565 214.405 330.388 214.013C332.885 213.476 335.365 214.121 337.353 215.516C339.399 216.951 340.915 219.179 341.388 221.69C341.502 222.295 341.453 222.948 341.223 223.514C340.998 224.067 340.606 224.541 340.03 224.841ZM289.981 198.444C288.482 199.904 286.708 200.13 284.914 200.331C283.917 200.444 283.121 200.535 282.338 200.712C280.185 201.198 278.057 201.93 276.116 202.984C274.087 204.086 271.875 205.415 270.284 207.118C269.906 207.523 269.549 207.948 269.192 208.374C268.866 208.762 268.552 209.136 268.222 209.497C267.842 209.911 267.482 210.345 267.123 210.778C266.901 211.144 266.857 211.234 266.813 211.327C266.746 211.468 266.667 211.625 266.578 211.794C266.456 212.025 266.313 212.278 266.163 212.507C265.913 212.926 265.779 213.042 265.663 213.094C265.471 213.179 265.289 213.221 265.113 213.198C264.947 213.177 264.791 213.098 264.637 212.967C263.867 212.317 263.64 211.25 263.664 210.118C263.699 208.399 264.333 206.496 264.917 205.327C266.276 202.609 268.16 199.783 270.425 197.755C273.011 195.439 275.839 193.686 279.088 192.478C281.107 191.728 283.444 191.038 285.644 191.125C287.227 191.188 288.738 191.659 289.986 192.834C290.753 193.556 291.121 194.582 291.121 195.607C291.121 196.653 290.738 197.706 289.981 198.444ZM343.078 211.815C342.982 211.972 342.85 212.079 342.704 212.144C342.55 212.212 342.378 212.231 342.213 212.203C342.049 212.176 341.893 212.101 341.769 211.988C341.651 211.879 341.56 211.734 341.52 211.557C340.525 207.187 338.593 203.935 334.47 201.839C332.441 200.807 330.109 200.152 327.901 199.629C327.259 199.477 326.581 199.379 325.898 199.279C323.759 198.967 321.603 198.609 320.208 196.879C319.368 195.837 319.015 194.504 319.214 193.286C319.402 192.138 320.073 191.086 321.291 190.455C324.326 188.886 328.097 190.426 331.161 191.738C331.388 191.835 331.611 191.93 331.829 192.022C334.826 193.287 337.559 194.957 339.806 197.345C341.588 199.24 343.24 202.04 343.905 204.921C344.458 207.318 344.328 209.765 343.078 211.815Z" fill="black"></path><path fill-rule="evenodd" clip-rule="evenodd" d="M354.314 234.083C351.279 238.16 345.653 239.458 340.464 239.01C329.273 237.933 325.751 225.221 325.384 215.341C332.888 217.452 324.749 202.499 350.403 200.855C359.446 200.101 356.953 205.563 360.948 209.554C360.866 217.93 359.472 227.031 354.314 234.083M301.008 224.458C294.401 255.404 258.219 248.043 254.419 220.148C257.928 217.67 257.004 211.553 261.364 209.337C268.274 204.921 276.912 205.11 284.759 205.214C294.79 205.903 297.648 210.059 302.801 214.592C302.553 217.62 301.838 221.209 301.008 224.458M368.646 195.73C368.275 195.668 367.904 195.61 367.533 195.555C367.243 195.391 366.903 195.264 366.507 195.188C365.603 194.959 364.706 194.804 363.81 194.721C350.95 191.826 321.201 195.936 319.973 206.911C315.878 208.278 312.334 207.053 307.588 207.175C303.975 192.073 241.515 194.204 238.511 203.31C238.5 203.306 238.489 203.304 238.477 203.3C235.591 202.407 231.336 202.622 228.032 202.481C220.978 202.333 213.916 202.962 207.014 204.45C194.09 206.504 176.452 208.908 185.441 225.049C185.442 225.051 185.444 225.055 185.446 225.057L185.447 225.056C186.996 226.644 189.625 225.365 189.723 223.216C186.701 215.569 193.527 214.651 198.778 212.453C211.845 207.758 225.149 207.108 238.664 208.56C239.681 209.757 241.224 210.801 242.854 211.347C251.891 212.847 247.128 219.551 252.84 220.526C251.791 243.894 280.159 256.649 296.595 241.288C303.158 234.871 304.723 225.365 306.244 216.797C307.049 216.616 307.56 216.176 307.859 215.594C309.794 213.662 311.009 211.878 314.835 211.347C318.661 210.817 321.607 211.881 322.005 212.207C322.106 212.41 322.213 212.613 322.339 212.815C322.514 213.118 322.752 213.359 323.022 213.549C319.244 236.818 337.307 251.534 355.542 239.466C363.465 232.012 365.139 220.599 365.47 210.413C366.544 209.765 367.224 208.509 366.853 206.93C366.34 204.752 367.542 202.867 369.455 201.921C371.942 200.692 371.502 196.203 368.646 195.73" fill="black"></path><path d="M210.429 258.497C205.963 262.214 200.83 255.663 201.812 251.648C202.239 249.9 202.681 249.198 204.183 247.714C205.938 245.98 205.981 248.157 207.425 247.525" stroke="#6C6C6C" stroke-width="3" stroke-linecap="round"></path></svg>